<svg width="100" height="138" viewBox="0 0 100 138" fill="none" xmlns="http://www.w3.org/2000/svg">
<path d="M99.7292 32.2197C99.3976 31.8364 98.9554 31.7816 98.679 31.7269C99.0107 31.0698 98.8448 30.3032 98.4026 29.8651C98.0157 29.5366 97.5735 29.5366 97.4077 29.5366C98.2921 29.5366 95.3073 27.7296 95.1968 27.6748C92.9306 26.963 89.6142 27.0177 89.2825 29.8104C88.8403 33.5338 89.2825 37.093 89.172 40.707C89.4484 41.4736 89.8353 42.0759 90.0564 42.4592C89.8905 49.1396 87.0716 55.0534 83.6447 60.5838C82.7603 62.0075 81.9864 63.1574 81.3784 63.9788C80.6046 63.1027 79.3886 61.8433 77.7857 60.4196C73.1427 56.3128 68.9972 52.9726 64.9622 48.2635C64.5753 47.8254 64.1331 47.3874 63.7462 47.0588C62.1986 45.7447 60.5404 45.1971 58.4953 44.2662C57.3345 43.7187 56.4501 43.0616 55.9527 42.5688C55.8421 41.9664 55.6763 40.7618 56.0632 39.3381C56.3949 38.2429 56.9476 37.4763 57.3345 36.9835C60.0429 38.4072 61.7564 37.8596 62.1986 37.6954C63.6357 37.1478 64.5201 35.7241 66.3441 32.9315C66.8968 32.0554 67.2837 31.3983 67.5601 30.9055C67.6706 30.9055 68.3892 31.1245 68.9972 30.7412C69.3841 30.5222 69.5499 30.2484 69.6052 30.0841C69.3841 29.3723 69.163 28.4414 69.1077 27.2915C69.1077 26.6344 69.1077 26.0869 69.163 25.5941C69.771 24.937 70.379 24.2799 70.987 23.6776C71.374 22.911 71.8161 21.8706 72.0372 20.5564C72.7005 16.8329 71.9267 13.4927 69.9921 10.9739C68.0023 8.23606 64.7411 6.37431 60.8167 5.82674C58.8269 5.55296 56.7265 5.60772 54.7919 6.31956C53.9628 6.6481 52.9126 7.63373 52.0835 7.74324C51.365 7.798 50.0384 7.08616 49.3751 6.75761C47.2195 5.60772 47.1642 4.29355 45.3402 2.70559C40.1445 -2.11304 33.3459 -0.14178 30.2505 5.82674C31.6324 5.38869 32.7378 5.55296 33.0142 6.04577C33.9539 7.96227 28.7029 9.49547 27.8738 8.07178C28.2054 8.61936 29.6425 10.7549 32.2404 11.2477C33.0695 11.412 33.788 11.3572 34.3408 11.2477C33.7328 12.7809 33.0695 14.3689 32.2404 15.9568C31.6324 17.2162 31.0244 18.3661 30.4164 19.4613C30.748 19.4065 32.7378 19.078 33.5669 17.4352C33.3459 18.3661 33.1248 19.4613 33.0142 20.6112C32.7378 24.0609 33.4011 26.9082 34.0091 28.6605C33.8433 27.8939 33.4011 25.0465 35.2251 22.6919C35.6673 22.1444 36.1095 21.7063 36.607 21.3778C36.5517 21.8158 36.3859 24.6084 38.3757 26.4154C38.9285 26.9082 39.5365 27.2368 40.0339 27.4558C39.5917 26.1964 38.9285 23.4585 39.647 20.1183C40.5314 16.0116 43.0187 13.4927 44.0136 12.6166C44.0136 13.2737 43.9583 14.4236 43.9031 15.8473C43.7925 20.7207 43.9031 22.0348 43.1292 23.6776C42.7976 24.3894 42.1896 25.4845 40.863 26.5797C41.5263 26.5797 42.5212 26.5249 43.4056 25.9774C44.6216 25.2108 44.898 23.9513 45.6718 22.8562C45.9482 23.0205 46.0035 23.2395 46.114 23.568C47.2195 26.5249 46.8878 29.6461 44.4558 31.7269C44.3453 31.8364 44.2347 31.8911 44.1242 32.0006C43.0187 32.8768 41.858 33.2053 41.2499 33.3696C41.0289 33.2601 40.7525 33.0958 40.3656 32.9315C39.5365 32.603 38.431 32.2744 37.1044 32.1102C36.4412 32.0554 34.3408 31.8364 31.7982 32.6577C28.9793 33.5886 26.4367 35.7789 24.4468 38.4072C22.6781 40.5975 21.3515 43.0616 20.4119 45.3066C18.0904 47.8802 15.6584 50.6181 13.3922 53.4654C8.91501 59.1054 5.04587 65.293 3.66404 72.2471C2.2822 79.2013 4.32732 86.484 2.61384 93.2738C2.39275 94.2047 2.17165 94.7523 1.95056 95.4641C1.39783 97.2711 0.734546 100.009 0.568726 103.732C0.734546 104.28 1.12146 105.156 1.89529 105.977C2.66911 106.854 3.44294 107.346 3.9404 107.565C4.43786 107.894 6.09607 108.661 7.97536 108.223C8.47282 108.113 8.91501 107.894 9.24665 107.73C9.46774 108.003 9.68884 108.277 9.85466 108.551C10.739 107.62 11.6234 106.689 12.5078 105.758C12.342 104.225 12.1761 102.637 12.0103 101.104C11.1812 100.173 10.0205 98.5305 9.19138 96.2855C9.02556 95.8474 8.63864 94.6975 8.41755 93.0548C8.307 92.1239 7.97536 88.948 9.9652 81.8296C11.0707 77.7776 11.7892 73.397 13.2263 69.4545C13.8896 67.6475 14.6634 66.2786 15.2162 65.4025C15.4373 65.2382 15.6031 65.0739 15.7689 64.9097C19.5828 61.7885 22.8992 57.846 26.7683 54.7796C28.0396 53.7392 29.3662 52.8083 30.8033 52.0417C30.8586 51.987 30.9691 51.9322 31.0796 51.8775C34.5066 58.7769 36.2201 64.4168 37.1044 68.3046C37.4914 69.9473 37.4361 69.9473 37.9335 72.1376C39.3154 77.9418 41.9132 84.0746 39.4812 89.9336C38.0994 90.974 26.8789 99.8994 28.2054 111.891C28.3712 113.698 28.924 115.998 30.2505 118.572C25.8839 127.607 23.2308 133.739 21.6279 137.846H45.2849C45.6718 137.134 46.114 136.477 46.5009 135.82C47.7722 133.63 48.9882 131.549 50.0937 129.468C53.7417 132.37 56.837 134.615 58.9927 136.149C59.8218 136.751 60.7062 137.353 61.5353 137.901H92.5437C88.2876 132.206 81.7654 127.278 77.2329 123.116C69.8263 116.217 62.5855 109.92 59.048 106.854C59.9876 105.156 61.2589 102.583 62.1433 99.2424C62.3091 98.64 62.4749 98.0377 62.8618 95.4094C62.9724 94.807 63.0829 94.0404 63.1935 93.2191C63.5251 90.8645 63.9673 88.0172 64.299 84.7317C64.4095 83.5271 64.5753 82.2677 64.6859 80.9535C65.0175 77.5585 65.0175 76.3539 64.7411 74.8755C64.6306 74.3279 64.4095 73.2327 64.299 71.7543C64.0779 69.4545 64.299 68.6331 64.5201 68.1951C64.9622 67.1547 65.6808 66.4429 66.123 66.1143C70.8765 69.4545 75.0773 73.7803 80.4941 75.9706C81.3784 76.3539 82.3181 76.6277 83.2025 76.8467C83.3683 76.9015 83.5894 76.9015 83.7552 76.8467C85.4687 76.5182 87.1269 73.0685 87.4032 71.809C88.3429 67.9213 90.6091 64.5811 92.1015 60.9124C93.4833 57.3532 93.8702 53.5202 95.031 49.9062C95.639 48.154 96.1917 46.7851 96.5234 45.8542C96.5234 45.4161 96.5233 44.8138 96.6892 44.0472C96.9103 42.7878 97.2972 41.9117 97.5735 41.3093C98.0157 40.269 98.6237 38.7905 99.3976 36.7098C99.4528 35.3956 99.5634 34.4647 99.6187 33.9171C100.006 33.1505 100.061 32.603 99.7292 32.2197ZM46.6667 14.5879C46.4456 14.9164 46.2798 15.1902 46.114 15.5188C46.0035 14.5331 45.9482 13.657 46.2246 12.2333C46.5009 11.1382 46.8878 9.38595 47.938 9.16693C48.4908 9.05741 49.2093 9.49547 49.8173 10.2621C48.1591 12.1786 47.1089 13.7665 46.6667 14.5879Z" fill="white"/>
</svg>
