<svg width="80" height="130" viewBox="0 0 80 130" fill="none" xmlns="http://www.w3.org/2000/svg">
<path fill-rule="evenodd" clip-rule="evenodd" d="M78.7296 129.974C78.3172 128.987 77.9212 128.055 77.5646 127.215L77.5643 127.214L77.5641 127.214C76.6879 125.151 76.0491 123.647 75.9859 123.254C74.4644 119.672 72.606 115.266 70.4803 110.202C70.2721 109.743 70.6998 108.924 71.0658 108.222C71.2511 107.867 71.4206 107.543 71.4838 107.31C71.8601 105.927 71.9856 104.419 72.0483 102.973C72.0483 100.269 71.6092 97.5663 70.7939 94.9888C69.1631 89.8339 66.278 85.0562 63.4556 80.5928C63.4025 80.5109 63.3465 80.4253 63.2884 80.3364C62.4528 79.0596 61.1676 77.0958 61.6367 75.6264C62.0131 74.4949 63.8319 73.2376 65.0236 73.489C65.2922 73.5429 65.5493 73.6774 65.8096 73.8137C66.1572 73.9956 66.5107 74.1806 66.9052 74.1806C67.5324 74.1806 68.0969 73.8034 68.3478 73.2376C68.6614 72.7347 68.7241 72.0431 68.5987 71.4774C68.5778 71.3097 68.5429 71.1421 68.5081 70.9745C68.4384 70.6392 68.3687 70.3039 68.4105 69.9686C68.4874 69.3137 69.1767 68.706 69.8288 68.131C70.2409 67.7678 70.638 67.4176 70.8566 67.0768C71.5608 66.0181 72.0453 64.7393 72.5158 63.4978L72.6128 63.2421C75.1843 55.8869 77.3168 48.406 79.3865 40.8622C79.5747 40.1707 79.7629 39.4163 79.512 38.7248C79.3166 38.2842 79.0072 37.9961 78.7021 37.7121L78.702 37.712C78.6153 37.6313 78.529 37.5509 78.4457 37.4675C74.2198 33.9701 69.1311 31.962 64.0536 29.9584C60.9171 28.7207 57.7848 27.4847 54.863 25.9003C54.7418 25.8317 54.6211 25.7631 54.5007 25.6946L54.4978 25.693L54.4978 25.6929C53.1858 24.947 51.9131 24.2233 50.5353 23.7629C47.2111 22.6942 43.5106 23.1343 40.061 23.6372C42.9461 21.4998 43.9496 18.1679 43.8242 14.6475C43.8242 13.4531 43.5733 12.1958 43.3225 11.0014C43.5106 11.0642 43.6988 11.1271 43.8869 11.2528C44.6792 11.7066 45.0119 12.4162 45.1615 12.7353C45.1777 12.7699 45.1918 12.7999 45.2041 12.8244C45.4549 12.3215 45.7058 11.5671 45.7058 10.6242L45.7001 10.5778C45.6383 10.0746 45.5443 9.30981 44.3887 7.48092C43.4479 5.97216 42.6952 4.8406 41.3154 3.52043C40.6255 2.89178 39.4965 2.01168 37.9912 1.32016C35.5452 0.0628648 33.2872 0 32.2837 0C31.4056 0 24.5691 0.0628648 21.7467 5.02919C20.7432 6.91514 20.6177 8.73822 20.6177 9.74406C20.4288 10.4636 20.2854 11.1147 20.1601 11.6836L20.1601 11.6836L20.1601 11.6837C20.0774 12.0592 20.0026 12.3988 19.9278 12.6987C19.6142 14.0189 19.6142 14.5847 19.8024 15.2133C19.9906 15.7791 20.3042 16.2191 20.555 16.4706C20.1473 17.0992 19.7553 17.7436 19.3633 18.388L19.3633 18.3881C18.9713 19.0324 18.5793 19.6767 18.1717 20.3054C18.1717 20.4939 18.2971 20.7454 18.4853 20.9969C18.8866 21.5141 19.6025 21.4534 19.7703 21.4392C19.7791 21.4384 19.7864 21.4378 19.7921 21.4374C19.7965 21.4371 19.8 21.4369 19.8024 21.4369C19.8651 23.8258 20.0533 25.586 20.2414 26.7804C20.3042 27.4091 20.4296 28.0377 20.9313 28.6664C21.6496 29.5115 22.5701 29.6865 23.4759 29.8587C24.3892 30.0323 25.2877 30.203 25.949 31.0553L28.0187 33.8842C28.0753 33.9615 28.1319 34.0385 28.1883 34.1151L28.189 34.116C28.8197 34.9734 29.4244 35.7953 29.7122 36.776C30.2139 38.4104 30.1512 42.1823 29.7122 43.8797C29.4935 44.7563 29.0104 45.6017 28.5186 46.4625C28.0227 47.3302 27.518 48.2136 27.2661 49.1603C26.9525 50.4176 25.8862 54.8182 28.2696 59.2816C28.3637 59.4073 28.4421 59.533 28.5205 59.6588C28.5989 59.7845 28.6773 59.9102 28.7714 60.036C28.8341 60.4131 28.8811 60.7903 28.9282 61.1675C28.9752 61.5447 29.0222 61.9219 29.085 62.2991C28.9595 63.3678 28.8968 64.4994 28.9595 65.7567C29.085 69.1514 29.9631 71.9803 30.7784 73.9291C29.3986 73.992 27.5797 73.9291 25.5099 73.6148C23.9419 73.4262 21.3077 72.9861 18.1089 71.7288C16.4155 71.1002 14.8476 70.2201 13.2796 69.34L13.2795 69.34C11.3979 68.2084 11.0216 66.4482 11.5233 64.3736C10.7707 63.6193 10.3944 62.9277 10.2062 62.4248C10.1163 62.1995 10.0586 61.9903 10.0014 61.7829C9.89892 61.4114 9.79797 61.0454 9.51628 60.6017C9.36088 60.3525 9.25168 60.2577 9.13527 60.1566C9.01675 60.0536 8.89075 59.9442 8.70091 59.6588C8.34648 59.1851 8.14505 58.7393 7.99181 58.4002C7.81966 58.0192 7.70834 57.7728 7.50923 57.7728C7.35107 57.7728 7.19291 57.9505 7.10925 58.0445L7.10922 58.0445C7.09336 58.0623 7.08019 58.0771 7.07019 58.0871C6.25484 59.1558 7.44652 61.6076 7.57196 61.859C7.57196 61.8764 7.59598 61.942 7.6347 62.0477C7.73591 62.3239 7.93762 62.8744 8.07372 63.5564C8.13643 63.9964 8.13643 64.2479 8.011 64.3736C7.88556 64.5622 7.50923 64.4994 6.75659 64.3108C6.22216 64.1917 5.57527 63.96 4.76272 63.6689L4.76256 63.6688L4.6241 63.6193C4.56139 63.4307 4.05963 62.6763 3.18155 62.4877C2.93067 62.362 2.24076 62.2362 1.67627 62.6763C1.23723 63.0535 0.986346 63.6821 1.11177 64.2479L1.1117 64.248L1.11163 64.248C0.986156 64.3738 0.735413 64.6252 0.610018 64.9394C0.315303 65.6484 0.685315 66.3573 0.782998 66.5445L0.783082 66.5446C0.789303 66.5566 0.794415 66.5664 0.798174 66.5739C0.610018 66.6996 0.359133 66.8882 0.170977 67.2025C-0.142622 67.7683 -0.0171793 68.4598 0.484575 69.0256C0.359133 69.1514 0.23369 69.4028 0.170977 69.78C-0.205351 71.2888 0.986346 72.7975 2.24074 73.489C2.41827 73.5869 2.60209 73.6898 2.79076 73.7954C3.93521 74.4361 5.25843 75.1769 6.443 75.5007C6.81509 75.6002 7.17737 75.6406 7.53373 75.6804C8.07837 75.7412 8.60916 75.8005 9.13996 76.0665C9.46102 76.1952 9.73278 76.3898 10.0141 76.5913C10.2824 76.7834 10.5594 76.9818 10.8961 77.1352C11.7755 77.5392 12.6976 77.7286 13.6126 77.9165L13.6127 77.9166C14.2639 78.0504 14.9115 78.1834 15.5374 78.3925C17.5417 79.0024 19.2601 80.1649 20.9839 81.3312C22.2809 82.2087 23.5809 83.0882 25.0082 83.736C28.3323 85.1819 32.4719 85.4962 36.0469 85.622C36.2978 87.5708 36.6741 89.2053 37.0504 90.274C37.1755 90.7335 33.4219 94.1643 30.5771 96.7646L30.577 96.7647L30.5769 96.7647C29.1414 98.0768 27.9373 99.1774 27.5797 99.578C24.2555 103.224 21.1195 107.185 18.2971 111.271C17.0598 113.078 16.103 114.802 15.1852 116.455C13.358 119.746 11.6853 122.759 8.26187 125.604C6.93501 126.718 5.99773 128.285 5.55553 129.974H30.096C32.4203 128.254 34.9506 126.71 37.5522 125.667L37.5525 125.667C38.305 125.415 39.0576 125.164 39.7474 124.787C40.51 124.384 41.3625 123.525 42.2659 122.615C44.1858 120.679 46.3355 118.513 48.3401 120.009C49.6833 121.03 50.8555 122.806 51.9072 124.399L51.9073 124.399C52.2797 124.963 52.637 125.505 52.9813 125.981C53.8916 127.263 54.7494 128.612 55.591 129.974H78.7296ZM59.9433 61.5447C60.8214 60.9161 61.135 60.4131 61.2604 59.9731C61.281 59.9318 61.3083 59.8432 61.3469 59.7182L61.3469 59.7182C61.4258 59.4624 61.5515 59.0546 61.7622 58.5901C61.874 58.3285 62.0081 58.1113 62.0984 57.965L62.0984 57.9649C62.16 57.8651 62.2012 57.7983 62.2012 57.7728C63.0793 56.3269 63.6438 53.2465 63.6438 53.2465C64.2541 49.854 64.619 45.8219 64.7385 44.5018C64.7541 44.3297 64.7655 44.2036 64.7727 44.1311C63.4556 44.0054 62.1385 43.8797 60.7586 43.754C60.7586 45.137 60.7586 46.6457 60.6332 48.2174C60.3823 50.9834 59.8179 53.3723 59.2534 55.4468C59.5042 57.4585 59.7551 59.533 59.9433 61.5447Z" fill="white"/>
</svg>
