<svg width="49" height="49" viewBox="0 0 49 49" fill="none" xmlns="http://www.w3.org/2000/svg">
<g clip-path="url(#clip0)">
<path fill-rule="evenodd" clip-rule="evenodd" d="M35.5091 25.8745C35.2726 23.4184 34.7346 21.1544 34.1383 19.0467C34.1366 19.0411 34.1351 19.0351 34.1335 19.0295C33.8878 18.1618 33.6323 17.3207 33.3841 16.5031C32.5746 13.8384 31.8102 11.3213 31.7507 9.0312C31.6147 3.82175 32.8777 1.76527 32.9276 1.68639C33.1035 1.43031 33.1657 1.01086 33.0896 0.629545C33.0135 0.248603 32.8069 0 32.5801 0H16.4973C16.2703 0 16.0619 0.245612 15.9859 0.626554C15.9096 1.00787 15.9699 1.42395 16.1458 1.68003C16.1997 1.76489 17.4627 3.82175 17.3269 9.03082C17.2672 11.321 16.5027 13.838 15.6935 16.5031C15.4451 17.3203 15.1896 18.1618 14.9439 19.0295C14.9422 19.0351 14.9408 19.0407 14.9391 19.0463C14.3051 21.2875 13.737 23.7051 13.5272 26.3429C13.5247 26.3695 13.5226 26.3964 13.5214 26.4233C13.4467 27.396 13.4203 28.3987 13.4585 29.4338C13.5234 31.2021 13.6926 33.2021 13.9611 35.379C14.0248 35.8953 14.3109 36.2212 14.6004 36.108C14.8898 35.9943 15.0728 35.484 15.0091 34.9678C14.7523 32.8847 14.591 30.9808 14.5293 29.3086C14.5174 28.9856 14.5134 28.666 14.5151 28.3493L22.1442 38.8048C22.6567 39.5073 23.3071 39.9436 24.0021 40.0598V47.0861H17.1596C16.9628 46.2214 16.5744 44.4565 16.1571 42.2378C16.0628 41.7369 15.7584 41.467 15.4778 41.6352C15.1967 41.803 15.0454 42.3455 15.1397 42.8468C15.7498 46.0902 16.2852 48.3265 16.3076 48.42C16.3923 48.7718 16.5862 49.0002 16.8008 49.0002H32.2766C32.4912 49.0002 32.6853 48.7718 32.7698 48.42C32.8735 47.9886 35.3129 37.7555 35.6189 29.4342C35.6636 28.2218 35.6204 27.0543 35.5139 25.9268C35.5126 25.9093 35.511 25.8921 35.5091 25.8745ZM18.3988 9.12017C18.4894 5.65095 18.0165 3.31745 17.569 1.91443H31.5084C31.0607 3.31745 30.588 5.65095 30.6786 9.12017C30.7496 11.8477 31.5711 14.5521 32.4403 17.4149C32.6214 18.0108 32.8033 18.6104 32.9806 19.2149C31.0301 21.766 27.9177 23.273 24.5387 23.273C21.1597 23.273 18.0473 21.766 16.0967 19.2149C16.2741 18.6104 16.456 18.0108 16.6369 17.4149C17.5065 14.5521 18.3277 11.8477 18.3988 9.12017ZM14.6337 26.0981C14.8125 24.3018 15.1753 22.5982 15.6115 20.9477C17.7509 23.6173 21.0239 25.187 24.5387 25.187C28.0537 25.187 31.3265 23.6169 33.4659 20.9477C33.8656 22.4602 34.2035 24.0177 34.3948 25.6502L25.8401 37.3742C25.0327 38.4807 23.6397 38.4407 22.7982 37.2874L14.6337 26.0981ZM34.548 29.309C34.2944 36.2067 32.4367 44.7994 31.9177 47.0861H25.0753V39.9806C25.6081 39.8075 26.0962 39.4366 26.4939 38.8919L34.5541 27.8458C34.5671 28.3261 34.5663 28.8133 34.548 29.309Z" fill="#FFE713"/>
<path fill-rule="evenodd" clip-rule="evenodd" d="M24.5386 18.8173C24.835 18.8173 25.0752 18.3889 25.0752 17.8602V14.9465C25.0752 14.4179 24.835 13.9895 24.5386 13.9895C24.2422 13.9895 24.002 14.4179 24.002 14.9465V17.8602C24.002 18.3889 24.2422 18.8173 24.5386 18.8173Z" fill="#FFE713"/>
<path fill-rule="evenodd" clip-rule="evenodd" d="M15.5487 38.8848C15.5487 38.3577 15.3077 37.9277 15.0121 37.9277C14.7166 37.9277 14.4756 38.3577 14.4756 38.8848C14.4756 39.4119 14.7166 39.8418 15.0121 39.8418C15.3077 39.8418 15.5487 39.4119 15.5487 38.8848Z" fill="#FFE713"/>
<path d="M9.42694 16.8441H13.3636V14.338H9.42694L10.6386 12.5273L8.54709 11.1365L5.56818 15.591L8.54709 20.0456L10.6386 18.6547L9.42694 16.8441Z" fill="#FFE713"/>
<path d="M41.5665 11.1365L39.475 12.5273L40.6867 14.338H36.75V16.8441H40.6867L39.475 18.6547L41.5665 20.0456L44.5455 15.591L41.5665 11.1365Z" fill="#FFE713"/>
</g>
<defs>
<clipPath id="clip0">
<rect width="49" height="49" fill="white"/>
</clipPath>
</defs>
</svg>
