<svg width="44" height="44" viewBox="0 0 44 44" fill="none" xmlns="http://www.w3.org/2000/svg">
<g clip-path="url(#clip0)">
<path fill-rule="evenodd" clip-rule="evenodd" d="M35.8398 23.2343C35.5423 21.0288 34.8652 18.9958 34.1148 17.1032C34.1127 17.0981 34.1108 17.0928 34.1087 17.0877C33.7996 16.3086 33.4781 15.5533 33.1658 14.8191C32.1471 12.4263 31.1851 10.1661 31.1102 8.10965C30.939 3.43178 32.5285 1.58514 32.5913 1.51431C32.8126 1.28436 32.8909 0.907711 32.7952 0.565305C32.6994 0.223235 32.4393 0 32.1539 0H11.915C11.6294 0 11.3672 0.22055 11.2714 0.56262C11.1754 0.905026 11.2514 1.27865 11.4727 1.5086C11.5405 1.5848 13.13 3.43178 12.959 8.10931C12.8839 10.1658 11.9219 12.426 10.9035 14.8191C10.5909 15.5529 10.2694 16.3086 9.96025 17.0877C9.95814 17.0928 9.9563 17.0978 9.95419 17.1028C9.15629 19.1153 8.44148 21.2862 8.17745 23.6549C8.17428 23.6787 8.17164 23.7029 8.17006 23.727C8.07616 24.6005 8.04292 25.5008 8.09093 26.4304C8.1727 28.0182 8.38556 29.8142 8.72345 31.7689C8.80363 32.2325 9.16367 32.5252 9.52794 32.4235C9.8922 32.3214 10.1225 31.8632 10.0423 31.3996C9.71917 29.5292 9.51607 27.8195 9.43852 26.3179C9.42348 26.0279 9.41847 25.7409 9.42058 25.4565L19.0212 34.8452C19.6661 35.4759 20.4846 35.8677 21.3592 35.9721V42.2814H12.7485C12.5009 41.505 12.0121 39.9202 11.4869 37.9278C11.3682 37.478 10.9853 37.2356 10.6321 37.3867C10.2784 37.5374 10.0879 38.0245 10.2066 38.4747C10.9744 41.3871 11.6481 43.3952 11.6763 43.4792C11.7829 43.7951 12.0269 44.0002 12.297 44.0002H31.772C32.0421 44.0002 32.2864 43.7951 32.3926 43.4792C32.5232 43.0918 35.5929 33.9029 35.978 26.4307C36.0342 25.3421 35.9799 24.2937 35.8459 23.2812C35.8443 23.2655 35.8422 23.25 35.8398 23.2343ZM14.3079 8.18954C14.4219 5.07432 13.8268 2.97893 13.2637 1.71908H30.8053C30.2419 2.97893 29.6471 5.07432 29.761 8.18954C29.8505 10.6388 30.8842 13.0671 31.978 15.6379C32.2059 16.173 32.4349 16.7114 32.658 17.2542C30.2034 19.545 26.2867 20.8982 22.0345 20.8982C17.7823 20.8982 13.8656 19.545 11.411 17.2542C11.6341 16.7114 11.8631 16.173 12.0907 15.6379C13.1851 13.0671 14.2185 10.6388 14.3079 8.18954ZM9.56988 23.435C9.79487 21.822 10.2515 20.2922 10.8004 18.8102C13.4926 21.2073 17.6114 22.6169 22.0345 22.6169C26.4579 22.6169 30.5763 21.207 33.2686 18.8102C33.7716 20.1684 34.1968 21.5669 34.4376 23.0328L23.6722 33.5605C22.6562 34.5541 20.9032 34.5182 19.8442 33.4826L9.56988 23.435ZM34.6305 26.3183C34.3113 32.5121 31.9735 40.228 31.3204 42.2814H22.7097V35.9009C23.3802 35.7455 23.9945 35.4125 24.4949 34.9234L34.6381 25.0044C34.6545 25.4357 34.6534 25.8731 34.6305 26.3183Z" fill="#07E00E"/>
<path fill-rule="evenodd" clip-rule="evenodd" d="M22.0346 16.8972C22.4076 16.8972 22.7099 16.5125 22.7099 16.0378V13.4214C22.7099 12.9467 22.4076 12.562 22.0346 12.562C21.6617 12.562 21.3594 12.9467 21.3594 13.4214V16.0378C21.3594 16.5125 21.6617 16.8972 22.0346 16.8972Z" fill="#07E00E"/>
<path fill-rule="evenodd" clip-rule="evenodd" d="M10.7215 34.917C10.7215 34.4437 10.4181 34.0576 10.0462 34.0576C9.67431 34.0576 9.37097 34.4437 9.37097 34.917C9.37097 35.3903 9.67431 35.7764 10.0462 35.7764C10.4181 35.7764 10.7215 35.3903 10.7215 34.917Z" fill="#07E00E"/>
</g>
<defs>
<clipPath id="clip0">
<rect width="44" height="44" fill="white"/>
</clipPath>
</defs>
</svg>
