<svg width="60" height="44" viewBox="0 0 60 44" fill="none" xmlns="http://www.w3.org/2000/svg">
<g clip-path="url(#clip0)">
<path fill-rule="evenodd" clip-rule="evenodd" d="M54.4205 23.2343C53.9041 21.0288 52.729 18.9958 51.4267 17.1032C51.423 17.0981 51.4198 17.0928 51.4162 17.0877C50.8797 16.3086 50.3217 15.5533 49.7797 14.8191C48.0118 12.4263 46.3423 10.1661 46.2123 8.10965C45.9153 3.43178 48.6737 1.58514 48.7827 1.51431C49.1667 1.28436 49.3027 0.907711 49.1365 0.565305C48.9704 0.223235 48.519 0 48.0237 0H12.8996C12.4039 0 11.9489 0.22055 11.7827 0.56262C11.6161 0.905026 11.7479 1.27865 12.132 1.5086C12.2496 1.5848 15.0081 3.43178 14.7115 8.10931C14.581 10.1658 12.9115 12.426 11.1441 14.8191C10.6017 15.5529 10.0437 16.3086 9.50716 17.0877C9.50349 17.0928 9.50029 17.0978 9.49663 17.1028C8.1119 19.1153 6.87136 21.2862 6.41314 23.6549C6.40765 23.6787 6.40307 23.7029 6.40033 23.727C6.23736 24.6005 6.17968 25.5008 6.263 26.4304C6.4049 28.0182 6.77432 29.8142 7.36071 31.7689C7.49987 32.2325 8.12472 32.5252 8.75688 32.4235C9.38905 32.3214 9.78868 31.8632 9.64952 31.3996C9.08876 29.5292 8.73628 27.8195 8.6017 26.3179C8.57561 26.0279 8.56691 25.7409 8.57058 25.4565L25.2322 34.8452C26.3514 35.4759 27.7719 35.8677 29.2898 35.9721V42.2814H14.3462C13.9163 41.505 13.0681 39.9202 12.1567 37.9278C11.9507 37.478 11.286 37.2356 10.6731 37.3867C10.0592 37.5374 9.72871 38.0245 9.93471 38.4747C11.2673 41.3871 12.4364 43.3952 12.4854 43.4792C12.6703 43.7951 13.0937 44.0002 13.5625 44.0002H47.3609C47.8296 44.0002 48.2535 43.7951 48.438 43.4792C48.6646 43.0918 53.992 33.9029 54.6603 26.4307C54.7578 25.3421 54.6635 24.2937 54.431 23.2812C54.4282 23.2655 54.4246 23.25 54.4205 23.2343ZM17.0524 8.18954C17.2502 5.07432 16.2175 2.97893 15.2402 1.71908H45.6832C44.7054 2.97893 43.6731 5.07432 43.8709 8.18954C44.0261 10.6388 45.82 13.0671 47.7184 15.6379C48.1139 16.173 48.5112 16.7114 48.8985 17.2542C44.6386 19.545 37.8412 20.8982 30.4617 20.8982C23.0821 20.8982 16.2848 19.545 12.0248 17.2542C12.4121 16.7114 12.8095 16.173 13.2045 15.6379C15.1038 13.0671 16.8973 10.6388 17.0524 8.18954ZM8.82967 23.435C9.22014 21.822 10.0125 20.2922 10.9651 18.8102C15.6375 21.2073 22.7855 22.6169 30.4617 22.6169C38.1383 22.6169 45.2858 21.207 49.9582 18.8102C50.8312 20.1684 51.5691 21.5669 51.987 23.0328L33.3039 33.5605C31.5406 34.5541 28.4983 34.5182 26.6604 33.4826L8.82967 23.435ZM52.3216 26.3183C51.7677 32.5121 47.7106 40.228 46.5772 42.2814H31.6335V35.9009C32.7972 35.7455 33.8633 35.4125 34.7317 34.9234L52.3349 25.0044C52.3633 25.4357 52.3615 25.8731 52.3216 26.3183Z" fill="#920FA7"/>
<path fill-rule="evenodd" clip-rule="evenodd" d="M7.55484 9.48284C7.09708 9.81854 7.09708 10.3627 7.55484 10.6981C7.78372 10.8659 8.08356 10.9498 8.38339 10.9498C8.68323 10.9498 8.98352 10.8659 9.21194 10.6981C9.21194 10.6981 12.6031 8.21124 12.6076 8.20788C12.8718 8.01418 13.005 7.72649 12.9391 7.45559C12.896 7.27834 12.7834 7.11922 12.6095 6.99133L9.21194 4.49981C8.75464 4.16445 8.0126 4.16445 7.55484 4.49981C7.09708 4.8355 7.09708 5.37966 7.55484 5.71536L8.95193 6.73956H2.172C1.52472 6.73956 1.00012 7.12426 1.00012 7.59893C1.00012 8.0736 1.52472 8.45831 2.172 8.45831H8.95193L7.55484 9.48284Z" fill="#920FA7"/>
<path fill-rule="evenodd" clip-rule="evenodd" d="M58.7514 6.73956H51.972L53.3686 5.71535C53.8264 5.37966 53.8264 4.8355 53.3686 4.49981C52.9108 4.16445 52.1693 4.16445 51.7115 4.49981L48.314 6.99133C48.0041 7.21825 47.8718 7.59423 48.0379 7.89703C48.1016 8.01284 48.1945 8.11892 48.314 8.20654L51.7115 10.6981C51.9404 10.8659 52.2402 10.9498 52.54 10.9498C52.8399 10.9498 53.1397 10.8659 53.3686 10.6981C53.8264 10.3627 53.8264 9.81853 53.3686 9.48284L51.9715 8.45831H58.7514C59.3987 8.45831 59.9233 8.0736 59.9233 7.59893C59.9233 7.12426 59.3987 6.73956 58.7514 6.73956Z" fill="#920FA7"/>
<path fill-rule="evenodd" clip-rule="evenodd" d="M10.8281 34.9172C10.8281 34.4439 10.3017 34.0579 9.65625 34.0579C9.0108 34.0579 8.48438 34.4439 8.48438 34.9172C8.48438 35.3906 9.0108 35.7766 9.65625 35.7766C10.3017 35.7766 10.8281 35.3906 10.8281 34.9172Z" fill="#920FA7"/>
<path d="M26.7266 18H24.1426V5.20312H26.7266V18ZM31.5957 18H29.0117V5.20312H31.5957V18ZM36.4648 18H33.8809V5.20312H36.4648V18Z" fill="#920FA7"/>
</g>
<defs>
<clipPath id="clip0">
<rect width="60" height="44" fill="white"/>
</clipPath>
</defs>
</svg>
