<svg width="60" height="44" viewBox="0 0 60 44" fill="none" xmlns="http://www.w3.org/2000/svg">
<g clip-path="url(#clip0)">
<path fill-rule="evenodd" clip-rule="evenodd" d="M51.7535 23.2342C51.2955 21.0287 50.2531 18.9957 49.0978 17.1031C49.0946 17.0981 49.0917 17.0927 49.0885 17.0877C48.6126 16.3085 48.1175 15.5532 47.6368 14.8191C46.0685 12.4263 44.5875 10.1661 44.4722 8.10962C44.2087 3.43177 46.6557 1.58513 46.7523 1.5143C47.093 1.28435 47.2136 0.907708 47.0662 0.565303C46.9188 0.223234 46.5184 0 46.0791 0H14.921C14.4812 0 14.0776 0.220549 13.9302 0.562618C13.7824 0.905022 13.8993 1.27865 14.24 1.50859C14.3444 1.5848 16.7914 3.43177 16.5282 8.10928C16.4125 10.1657 14.9316 12.4259 13.3637 14.8191C12.8825 15.5529 12.3875 16.3085 11.9116 17.0877C11.9083 17.0927 11.9055 17.0977 11.9022 17.1028C10.6739 19.1152 9.57341 21.2862 9.16693 23.6548C9.16206 23.6786 9.158 23.7028 9.15556 23.727C9.011 24.6004 8.95984 25.5008 9.03374 26.4303C9.15963 28.0181 9.48733 29.814 10.0075 31.7688C10.131 32.2324 10.6852 32.5251 11.246 32.4234C11.8068 32.3213 12.1613 31.8631 12.0379 31.3995C11.5404 29.529 11.2278 27.8194 11.1084 26.3178C11.0852 26.0278 11.0775 25.7408 11.0808 25.4564L25.861 34.845C26.8539 35.4758 28.1139 35.8676 29.4605 35.972V42.2813H16.2042C15.8229 41.5048 15.0704 39.92 14.2619 37.9277C14.0792 37.4779 13.4896 37.2355 12.9459 37.3866C12.4013 37.5373 12.1081 38.0244 12.2909 38.4745C13.4729 41.387 14.5101 43.3951 14.5535 43.479C14.7176 43.7949 15.0932 44 15.509 44H45.4911C45.9069 44 46.2829 43.7949 46.4466 43.479C46.6476 43.0916 51.3735 33.9028 51.9663 26.4306C52.0528 25.342 51.9692 24.2936 51.7629 23.2812C51.7604 23.2654 51.7572 23.2499 51.7535 23.2342ZM18.6049 8.18951C18.7803 5.0743 17.8642 2.97892 16.9973 1.71907H44.0028C43.1354 2.97892 42.2197 5.0743 42.3952 8.18951C42.5328 10.6387 44.1242 13.0671 45.8082 15.6378C46.1591 16.1729 46.5115 16.7114 46.8551 17.2542C43.0761 19.5449 37.0464 20.8981 30.5 20.8981C23.9537 20.8981 17.9239 19.5449 14.145 17.2542C14.4885 16.7114 14.841 16.1729 15.1914 15.6378C16.8762 13.0671 18.4672 10.6387 18.6049 8.18951ZM11.3106 23.4349C11.657 21.8219 12.3599 20.2922 13.2049 18.8101C17.3497 21.2073 23.6906 22.6168 30.5 22.6168C37.3099 22.6168 43.6503 21.2069 47.7951 18.8101C48.5695 20.1683 49.2241 21.5668 49.5948 23.0328L33.0213 33.5604C31.4571 34.554 28.7584 34.5181 27.128 33.4825L11.3106 23.4349ZM49.8917 26.3182C49.4003 32.512 45.8013 40.2278 44.7959 42.2813H31.5396V35.9008C32.5718 35.7454 33.5176 35.4124 34.2879 34.9233L49.9035 25.0043C49.9286 25.4356 49.927 25.873 49.8917 26.3182Z" fill="#CA19A3"/>
<path fill-rule="evenodd" clip-rule="evenodd" d="M7.55484 9.48284C7.09708 9.81854 7.09708 10.3627 7.55484 10.6981C7.78372 10.8659 8.08356 10.9498 8.38339 10.9498C8.68323 10.9498 8.98352 10.8659 9.21194 10.6981C9.21194 10.6981 12.6031 8.21124 12.6076 8.20788C12.8718 8.01418 13.005 7.72649 12.9391 7.45559C12.896 7.27834 12.7834 7.11922 12.6095 6.99133L9.21194 4.49981C8.75464 4.16445 8.0126 4.16445 7.55484 4.49981C7.09708 4.8355 7.09708 5.37966 7.55484 5.71536L8.95193 6.73956H2.172C1.52472 6.73956 1.00012 7.12426 1.00012 7.59893C1.00012 8.0736 1.52472 8.45831 2.172 8.45831H8.95193L7.55484 9.48284Z" fill="#CA19A3"/>
<path fill-rule="evenodd" clip-rule="evenodd" d="M58.7514 6.73956H51.972L53.3686 5.71535C53.8264 5.37966 53.8264 4.8355 53.3686 4.49981C52.9108 4.16445 52.1693 4.16445 51.7115 4.49981L48.314 6.99133C48.0041 7.21825 47.8718 7.59423 48.0379 7.89703C48.1016 8.01284 48.1945 8.11892 48.314 8.20654L51.7115 10.6981C51.9404 10.8659 52.2402 10.9498 52.54 10.9498C52.8399 10.9498 53.1397 10.8659 53.3686 10.6981C53.8264 10.3627 53.8264 9.81853 53.3686 9.48284L51.9715 8.45831H58.7514C59.3987 8.45831 59.9233 8.0736 59.9233 7.59893C59.9233 7.12426 59.3987 6.73956 58.7514 6.73956Z" fill="#CA19A3"/>
<path fill-rule="evenodd" clip-rule="evenodd" d="M10.8281 34.9172C10.8281 34.4439 10.3017 34.0579 9.65625 34.0579C9.0108 34.0579 8.48438 34.4439 8.48438 34.9172C8.48438 35.3906 9.0108 35.7766 9.65625 35.7766C10.3017 35.7766 10.8281 35.3906 10.8281 34.9172Z" fill="#CA19A3"/>
<path d="M28.7266 18H26.1426V5.20312H28.7266V18ZM33.5957 18H31.0117V5.20312H33.5957V18Z" fill="#CA19A3"/>
</g>
<defs>
<clipPath id="clip0">
<rect width="60" height="44" fill="white"/>
</clipPath>
</defs>
</svg>
