<svg width="60" height="44" viewBox="0 0 60 44" fill="none" xmlns="http://www.w3.org/2000/svg">
<path fill-rule="evenodd" clip-rule="evenodd" d="M47.7937 23.2342C47.4102 21.0287 46.5375 18.9957 45.5703 17.1031C45.5676 17.0981 45.5652 17.0927 45.5625 17.0877C45.164 16.3085 44.7496 15.5532 44.3471 14.8191C43.0341 12.4263 41.7942 10.1661 41.6977 8.10962C41.4771 3.43177 43.5257 1.58513 43.6066 1.5143C43.8919 1.28435 43.9928 0.907708 43.8694 0.565303C43.746 0.223234 43.4108 0 43.043 0H16.9571C16.589 0 16.251 0.220549 16.1276 0.562618C16.0039 0.905022 16.1018 1.27865 16.387 1.50859C16.4744 1.5848 18.523 3.43177 18.3027 8.10928C18.2058 10.1657 16.966 12.4259 15.6534 14.8191C15.2505 15.5529 14.8361 16.3085 14.4376 17.0877C14.4349 17.0927 14.4325 17.0977 14.4298 17.1028C13.4014 19.1152 12.4801 21.2862 12.1398 23.6548C12.1357 23.6786 12.1323 23.7028 12.1303 23.727C12.0092 24.6004 11.9664 25.5008 12.0283 26.4303C12.1337 28.0181 12.408 29.814 12.8435 31.7688C12.9469 32.2324 13.4109 32.5251 13.8804 32.4234C14.3499 32.3213 14.6467 31.8631 14.5434 31.3995C14.1269 29.529 13.8651 27.8194 13.7652 26.3178C13.7458 26.0278 13.7393 25.7408 13.7421 25.4564L26.1162 34.845C26.9475 35.4758 28.0024 35.8676 29.1297 35.972V42.2813H18.0314C17.7122 41.5048 17.0822 39.92 16.4054 37.9277C16.2524 37.4779 15.7587 37.2355 15.3035 37.3866C14.8476 37.5373 14.6022 38.0244 14.7552 38.4745C15.7448 41.387 16.6131 43.3951 16.6495 43.479C16.7868 43.7949 17.1013 44 17.4494 44H42.5507C42.8988 44 43.2136 43.7949 43.3506 43.479C43.5189 43.0916 47.4755 33.9028 47.9718 26.4306C48.0442 25.342 47.9742 24.2936 47.8015 23.2812C47.7995 23.2654 47.7967 23.2499 47.7937 23.2342ZM20.0413 8.18951C20.1882 5.0743 19.4212 2.97892 18.6954 1.71907H41.3047C40.5785 2.97892 39.8119 5.0743 39.9588 8.18951C40.074 10.6387 41.4063 13.0671 42.8162 15.6378C43.1099 16.1729 43.405 16.7114 43.6926 17.2542C40.5289 19.5449 35.4807 20.8981 30 20.8981C24.5194 20.8981 19.4712 19.5449 16.3075 17.2542C16.5951 16.7114 16.8902 16.1729 17.1836 15.6378C18.5941 13.0671 19.9261 10.6387 20.0413 8.18951ZM13.9345 23.4349C14.2245 21.8219 14.813 20.2922 15.5204 18.8101C18.9905 21.2073 24.2991 22.6168 30 22.6168C35.7013 22.6168 41.0096 21.2069 44.4797 18.8101C45.128 20.1683 45.676 21.5668 45.9864 23.0328L32.1109 33.5604C30.8014 34.554 28.5419 34.5181 27.1769 33.4825L13.9345 23.4349ZM46.2349 26.3182C45.8236 32.512 42.8104 40.2278 41.9687 42.2813H30.8704V35.9008C31.7346 35.7454 32.5264 35.4124 33.1713 34.9233L46.2448 25.0043C46.2659 25.4356 46.2645 25.873 46.2349 26.3182Z" fill="#FE4351"/>
<path fill-rule="evenodd" clip-rule="evenodd" d="M30.0476 16.8972C30.6949 16.8972 31.2195 16.5125 31.2195 16.0378V13.4214C31.2195 12.9467 30.6949 12.562 30.0476 12.562C29.4003 12.562 28.8757 12.9467 28.8757 13.4214V16.0378C28.8757 16.5125 29.4003 16.8972 30.0476 16.8972Z" fill="#FE4351"/>
<path fill-rule="evenodd" clip-rule="evenodd" d="M7.14078 9.48309C6.68301 9.81878 6.68301 10.3629 7.14078 10.6983C7.36966 10.8661 7.66949 10.9501 7.96933 10.9501C8.26916 10.9501 8.56946 10.8661 8.79788 10.6983C8.79788 10.6983 12.189 8.21148 12.1936 8.20812C12.4577 8.01443 12.5909 7.72674 12.525 7.45583C12.482 7.27859 12.3694 7.11947 12.1954 6.99157L8.79788 4.50005C8.34058 4.1647 7.59854 4.1647 7.14078 4.50005C6.68301 4.83575 6.68301 5.37991 7.14078 5.7156L8.53787 6.7398H1.75793C1.11066 6.7398 0.58606 7.1245 0.58606 7.59917C0.58606 8.07385 1.11066 8.45855 1.75793 8.45855H8.53787L7.14078 9.48309Z" fill="#FE4351"/>
<path fill-rule="evenodd" clip-rule="evenodd" d="M58.3376 6.7398H51.5581L52.9548 5.7156C53.4125 5.37991 53.4125 4.83575 52.9548 4.50005C52.497 4.1647 51.7554 4.1647 51.2977 4.50005L47.9002 6.99157C47.5902 7.2185 47.458 7.59447 47.6241 7.89727C47.6878 8.01308 47.7807 8.11916 47.9002 8.20678L51.2977 10.6983C51.5266 10.8661 51.8264 10.9501 52.1262 10.9501C52.4261 10.9501 52.7259 10.8661 52.9548 10.6983C53.4125 10.3629 53.4125 9.81878 52.9548 9.48309L51.5577 8.45855H58.3376C58.9849 8.45855 59.5095 8.07384 59.5095 7.59917C59.5095 7.1245 58.9849 6.7398 58.3376 6.7398Z" fill="#FE4351"/>
</svg>
