<svg width="59" height="44" viewBox="0 0 59 44" fill="none" xmlns="http://www.w3.org/2000/svg">
<g clip-path="url(#clip0)">
<path fill-rule="evenodd" clip-rule="evenodd" d="M45.8169 23.2343C45.4767 21.0288 44.7025 18.9958 43.8444 17.1032C43.842 17.0981 43.8399 17.0928 43.8375 17.0877C43.484 16.3086 43.1164 15.5533 42.7593 14.8191C41.5945 12.4263 40.4946 10.1661 40.4089 8.10965C40.2132 3.43178 42.0306 1.58514 42.1024 1.51431C42.3554 1.28436 42.445 0.907711 42.3355 0.565305C42.2261 0.223235 41.9287 0 41.6023 0H18.4607C18.134 0 17.8342 0.22055 17.7248 0.56262C17.615 0.905026 17.7018 1.27865 17.9549 1.5086C18.0324 1.5848 19.8498 3.43178 19.6544 8.10931C19.5684 10.1658 18.4685 12.426 17.304 14.8191C16.9466 15.5529 16.579 16.3086 16.2255 17.0877C16.2231 17.0928 16.221 17.0978 16.2186 17.1028C15.3062 19.1153 14.4889 21.2862 14.187 23.6549C14.1834 23.6787 14.1804 23.7029 14.1786 23.727C14.0712 24.6005 14.0332 25.5008 14.0881 26.4304C14.1816 28.0182 14.425 29.8142 14.8113 31.7689C14.903 32.2325 15.3147 32.5252 15.7312 32.4235C16.1477 32.3214 16.411 31.8632 16.3193 31.3996C15.9499 29.5292 15.7176 27.8195 15.6289 26.3179C15.6118 26.0279 15.606 25.7409 15.6084 25.4565L26.586 34.8452C27.3234 35.4759 28.2593 35.8677 29.2594 35.9721V42.2814H19.4137C19.1305 41.505 18.5717 39.9202 17.9712 37.9278C17.8354 37.478 17.3975 37.2356 16.9937 37.3867C16.5892 37.5374 16.3715 38.0245 16.5072 38.4747C17.3852 41.3871 18.1554 43.3952 18.1877 43.4792C18.3096 43.7951 18.5885 44.0002 18.8974 44.0002H41.1656C41.4745 44.0002 41.7538 43.7951 41.8753 43.4792C42.0246 43.0918 45.5346 33.9029 45.9749 26.4307C46.0392 25.3421 45.977 24.2937 45.8238 23.2812C45.822 23.2655 45.8196 23.25 45.8169 23.2343ZM21.1968 8.18954C21.3271 5.07432 20.6467 2.97893 20.0027 1.71908H40.0603C39.4161 2.97893 38.736 5.07432 38.8662 8.18954C38.9685 10.6388 40.1505 13.0671 41.4012 15.6379C41.6618 16.173 41.9236 16.7114 42.1787 17.2542C39.372 19.545 34.8936 20.8982 30.0315 20.8982C25.1694 20.8982 20.691 19.545 17.8843 17.2542C18.1395 16.7114 18.4012 16.173 18.6615 15.6379C19.9129 13.0671 21.0945 10.6388 21.1968 8.18954ZM15.7791 23.435C16.0364 21.822 16.5585 20.2922 17.1861 18.8102C20.2645 21.2073 24.974 22.6169 30.0315 22.6169C35.0893 22.6169 39.7985 21.207 42.8769 18.8102C43.4521 20.1684 43.9382 21.5669 44.2136 23.0328L31.9041 33.5605C30.7424 34.5541 28.7379 34.5182 27.527 33.4826L15.7791 23.435ZM44.4341 26.3183C44.0691 32.5121 41.3961 40.228 40.6493 42.2814H30.8036V35.9009C31.5703 35.7455 32.2727 35.4125 32.8448 34.9234L44.4428 25.0044C44.4615 25.4357 44.4603 25.8731 44.4341 26.3183Z" fill="#0367DF"/>
<path fill-rule="evenodd" clip-rule="evenodd" d="M30.0315 16.8972C30.458 16.8972 30.8036 16.5125 30.8036 16.0378V13.4214C30.8036 12.9467 30.458 12.562 30.0315 12.562C29.605 12.562 29.2594 12.9467 29.2594 13.4214V16.0378C29.2594 16.5125 29.605 16.8972 30.0315 16.8972Z" fill="#0367DF"/>
<path fill-rule="evenodd" clip-rule="evenodd" d="M17.0958 34.917C17.0958 34.4437 16.749 34.0576 16.3237 34.0576C15.8985 34.0576 15.5516 34.4437 15.5516 34.917C15.5516 35.3903 15.8985 35.7764 16.3237 35.7764C16.749 35.7764 17.0958 35.3903 17.0958 34.917Z" fill="#0367DF"/>
</g>
<path fill-rule="evenodd" clip-rule="evenodd" d="M6.55472 13.2346C6.09695 13.5702 6.09695 14.1144 6.55472 14.4498C6.7836 14.6176 7.08343 14.7015 7.38327 14.7015C7.6831 14.7015 7.9834 14.6176 8.21182 14.4498C8.21182 14.4498 11.6029 11.9629 11.6075 11.9596C11.8716 11.7659 12.0049 11.4782 11.9389 11.2073C11.8959 11.0301 11.7833 10.8709 11.6093 10.743L8.21182 8.25152C7.75452 7.91616 7.01248 7.91616 6.55472 8.25152C6.09695 8.58721 6.09695 9.13137 6.55472 9.46706L7.95181 10.4913H1.17187C0.524597 10.4913 0 10.876 0 11.3506C0 11.8253 0.524597 12.21 1.17187 12.21H7.95181L6.55472 13.2346Z" fill="#0367DF"/>
<path fill-rule="evenodd" clip-rule="evenodd" d="M57.7516 10.4913H50.9721L52.3687 9.46706C52.8265 9.13137 52.8265 8.58721 52.3687 8.25152C51.911 7.91616 51.1694 7.91616 50.7116 8.25152L47.3141 10.743C47.0042 10.97 46.8719 11.3459 47.0381 11.6487C47.1017 11.7645 47.1946 11.8706 47.3141 11.9582L50.7116 14.4498C50.9405 14.6176 51.2403 14.7015 51.5402 14.7015C51.84 14.7015 52.1398 14.6176 52.3687 14.4498C52.8265 14.1144 52.8265 13.5702 52.3687 13.2346L50.9716 12.21H57.7516C58.3988 12.21 58.9234 11.8253 58.9234 11.3506C58.9234 10.876 58.3988 10.4913 57.7516 10.4913Z" fill="#0367DF"/>
<defs>
<clipPath id="clip0">
<rect width="40" height="44" fill="white" transform="translate(10)"/>
</clipPath>
</defs>
</svg>
