<svg width="58" height="57" viewBox="0 0 58 57" fill="none" xmlns="http://www.w3.org/2000/svg">
<path d="M13.1023 17.0174C11.5458 19.1988 10.7106 21.8124 10.7136 24.4922C10.7136 25.7913 11.2297 27.0373 12.1483 27.9559C13.067 28.8745 14.3129 29.3906 15.6121 29.3906C16.9112 29.3906 18.1571 28.8745 19.0758 27.9559C19.9944 27.0373 20.5105 25.7913 20.5105 24.4922C20.5114 23.6657 20.8402 22.8734 21.4245 22.289C22.0089 21.7047 22.8012 21.3759 23.6277 21.375C24.8492 21.3734 26.0262 20.9161 26.9282 20.0924C27.8303 19.2688 28.3926 18.1382 28.505 16.9219H30.0944C29.6465 18.3639 29.418 19.865 29.4167 21.375C29.4167 23.5009 30.2612 25.5397 31.7645 27.0429C33.2677 28.5461 35.3065 29.3906 37.4324 29.3906C39.5582 29.3906 41.597 28.5461 43.1003 27.0429C44.6035 25.5397 45.448 23.5009 45.448 21.375C45.4424 19.0255 44.8927 16.7092 43.8419 14.6077C42.7912 12.5062 41.268 10.6767 39.3917 9.2625L37.9667 8.19375C37.8126 8.07813 37.6251 8.01562 37.4324 8.01562C37.2397 8.01562 37.0522 8.07813 36.898 8.19375L35.473 9.2625C33.4364 10.7955 31.8191 12.8172 30.7706 15.1406H28.3394C28.0475 14.1156 27.4298 13.2136 26.5798 12.5708C25.7297 11.9281 24.6934 11.5796 23.6277 11.5781C20.3138 11.5757 17.1268 12.8518 14.7303 15.1406H14.2761C12.2388 15.1423 10.2633 15.8408 8.67776 17.1202L9.79817 18.5048C10.7507 17.7289 11.8899 17.2161 13.1023 17.0174ZM36.5417 10.6875L37.4324 10.0195L38.323 10.6875C39.9785 11.9353 41.3225 13.5496 42.2496 15.4039C43.1768 17.2581 43.6618 19.3019 43.6667 21.375C43.6667 23.0285 43.0099 24.6142 41.8407 25.7834C40.6716 26.9525 39.0858 27.6094 37.4324 27.6094C35.7789 27.6094 34.1932 26.9525 33.024 25.7834C31.8548 24.6142 31.198 23.0285 31.198 21.375C31.2029 19.3019 31.688 17.2581 32.6151 15.4039C33.5422 13.5496 34.8862 11.9353 36.5417 10.6875ZM23.6277 13.3594C24.4544 13.3594 25.2473 13.6878 25.8319 14.2724C26.4165 14.857 26.7449 15.6498 26.7449 16.4766C26.7449 17.3033 26.4165 18.0962 25.8319 18.6807C25.2473 19.2653 24.4544 19.5938 23.6277 19.5938C22.329 19.5952 21.0839 20.1117 20.1656 21.0301C19.2472 21.9484 18.7307 23.1935 18.7292 24.4922C18.7292 25.3189 18.4008 26.1118 17.8162 26.6964C17.2317 27.281 16.4388 27.6094 15.6121 27.6094C14.7853 27.6094 13.9925 27.281 13.4079 26.6964C12.8233 26.1118 12.4949 25.3189 12.4949 24.4922C12.4982 21.5406 13.6722 18.7109 15.7593 16.6238C17.8464 14.5367 20.6761 13.3627 23.6277 13.3594Z" fill="#FFF599"/>
<path d="M38.323 12.4688H36.5417V25.8281H38.323V12.4688Z" fill="#FFF599"/>
<path d="M34.7605 16.9219H32.9792V23.1562H34.7605V16.9219Z" fill="#FFF599"/>
<path d="M41.8855 16.9219H40.1042V23.1562H41.8855V16.9219Z" fill="#FFF599"/>
<path d="M53.8012 44.2274C53.345 43.7598 52.7999 43.3882 52.198 43.1345C51.5961 42.8808 50.9495 42.7501 50.2962 42.7501C49.643 42.7501 48.9964 42.8808 48.3944 43.1345C47.7925 43.3882 47.2474 43.7598 46.7913 44.2274C46.5011 44.5263 46.1538 44.7638 45.7701 44.926C45.3863 45.0881 44.974 45.1715 44.5574 45.1712C44.4297 45.1709 44.3022 45.1629 44.1755 45.1471C49.0206 39.4791 51.6827 32.2673 51.6824 24.8107V24.047C51.6815 22.4122 51.2313 20.8092 50.3809 19.4131C49.5305 18.017 48.3127 16.8815 46.8605 16.1309L46.0426 17.7131C47.4622 18.4455 48.5945 19.6338 49.2578 21.087C49.9211 22.5402 50.0768 24.1742 49.7001 25.7266C49.3233 27.2789 48.4359 28.6597 47.1802 29.6472C45.9246 30.6347 44.3736 31.1717 42.7761 31.172H29.304C29.379 30.881 29.4169 30.5818 29.4167 30.2813V26.7188C29.4168 26.6019 29.3937 26.4861 29.349 26.378C29.3042 26.2699 29.2386 26.1718 29.1559 26.0891L26.484 23.4172C26.4013 23.3345 26.3031 23.2689 26.1951 23.2241C26.087 23.1794 25.9712 23.1563 25.8542 23.1563C24.9097 23.1574 24.0042 23.5331 23.3364 24.2009C22.6685 24.8688 22.2928 25.7743 22.2917 26.7188V30.2813C22.2916 30.5818 22.3295 30.881 22.4045 31.172H14.2761C12.3871 31.1698 10.5761 30.4185 9.24033 29.0828C7.90459 27.747 7.15324 25.936 7.15112 24.047C7.14449 22.4161 7.70397 20.8334 8.7341 19.569L7.3494 18.4486C6.07005 20.0342 5.37155 22.0096 5.36987 24.047V24.8107C5.36982 33.1117 8.66732 41.0729 14.537 46.9427C14.7041 47.1096 14.9306 47.2033 15.1667 47.2032H32.0886V45.422H15.5388C11.3956 41.1721 8.62797 35.7731 7.59644 29.9281C8.43046 30.8786 9.45776 31.6401 10.6097 32.1618C11.7616 32.6835 13.0116 32.9533 14.2761 32.9532H23.5017C24.151 33.5271 24.9877 33.8438 25.8542 33.8438C26.7208 33.8438 27.5575 33.5271 28.2068 32.9532H42.7761C44.0407 32.9534 45.2906 32.6836 46.4426 32.162C47.5945 31.6403 48.6218 30.8788 49.4558 29.9283C48.5094 35.296 46.0959 40.2971 42.4827 44.3778C42.4283 44.3295 42.3749 44.2798 42.3234 44.2274C41.8672 43.7598 41.3221 43.3882 40.7202 43.1345C40.1183 42.8808 39.4716 42.7501 38.8184 42.7501C38.1652 42.7501 37.5186 42.8808 36.9166 43.1345C36.3147 43.3882 35.7696 43.7598 35.3135 44.2274C34.39 45.177 33.8734 46.4493 33.8734 47.7739C33.8734 49.0984 34.39 50.3708 35.3135 51.3203C37.3472 53.4156 40.0328 54.7571 42.9295 55.1247C45.8262 55.4923 48.7618 54.8641 51.2544 53.3432L50.3288 51.8213C45.8948 54.5177 40.2425 53.7986 36.5845 50.0725C35.986 49.457 35.6512 48.6324 35.6512 47.7739C35.6512 46.9154 35.986 46.0908 36.5845 45.4753C36.8748 45.1766 37.2221 44.9391 37.6058 44.777C37.9895 44.6149 38.4019 44.5313 38.8184 44.5313C39.235 44.5313 39.6473 44.6149 40.031 44.777C40.4147 44.9391 40.762 45.1766 41.0523 45.4753C41.5085 45.9428 42.0536 46.3144 42.6555 46.5681C43.2574 46.8218 43.904 46.9525 44.5573 46.9525C45.2105 46.9525 45.8571 46.8218 46.459 46.5681C47.061 46.3144 47.6061 45.9428 48.0622 45.4753C48.3525 45.1766 48.6998 44.9391 49.0835 44.777C49.4672 44.6149 49.8796 44.5313 50.2961 44.5313C50.7127 44.5313 51.125 44.6149 51.5087 44.777C51.8924 44.9391 52.2397 45.1766 52.53 45.4753C53.1285 46.0908 53.4633 46.9154 53.4633 47.7739C53.4633 48.6324 53.1285 49.457 52.53 50.0725C52.2203 50.3879 51.8927 50.6853 51.5489 50.9631L52.6677 52.3491C53.065 52.0282 53.4434 51.6846 53.8011 51.3201C54.7244 50.3706 55.241 49.0983 55.2411 47.7738C55.2411 46.4493 54.7245 45.177 53.8012 44.2274ZM27.6355 30.2813C27.6355 30.7537 27.4478 31.2068 27.1138 31.5409C26.7797 31.8749 26.3267 32.0626 25.8542 32.0626C25.3818 32.0626 24.9288 31.8749 24.5947 31.5409C24.2607 31.2068 24.073 30.7537 24.073 30.2813V26.7188C24.0735 26.305 24.2179 25.9042 24.4814 25.5851C24.7449 25.266 25.1111 25.0484 25.5174 24.9695L27.6355 27.0877V30.2813Z" fill="#FFF599"/>
<path d="M8.93237 46.3125H5.36987C5.25291 46.3125 5.1371 46.3355 5.02904 46.3803C4.92098 46.425 4.8228 46.4906 4.74009 46.5733L2.06821 49.2452C1.98551 49.3279 1.91991 49.4261 1.87516 49.5342C1.8304 49.6422 1.80737 49.758 1.80737 49.875C1.80843 50.8195 2.18411 51.725 2.85198 52.3929C3.51985 53.0608 4.42536 53.4364 5.36987 53.4375H8.93237C9.87721 53.4375 10.7833 53.0622 11.4514 52.3941C12.1195 51.726 12.4949 50.8198 12.4949 49.875C12.4949 48.9302 12.1195 48.024 11.4514 47.3559C10.7833 46.6878 9.87721 46.3125 8.93237 46.3125ZM8.93237 51.6562H5.36987C4.95603 51.6557 4.55525 51.5114 4.23613 51.2479C3.91701 50.9844 3.69941 50.6181 3.62057 50.2119L5.7387 48.0938H8.93237C9.40479 48.0938 9.85786 48.2814 10.1919 48.6155C10.526 48.9495 10.7136 49.4026 10.7136 49.875C10.7136 50.3474 10.526 50.8005 10.1919 51.1345C9.85786 51.4686 9.40479 51.6562 8.93237 51.6562Z" fill="#FFF599"/>
<path d="M20.0652 48.9844H17.3933C16.5666 48.9844 15.7737 49.3128 15.1891 49.8974C14.6045 50.482 14.2761 51.2748 14.2761 52.1016C14.2761 52.9283 14.6045 53.7212 15.1891 54.3057C15.7737 54.8903 16.5666 55.2188 17.3933 55.2188H20.0652C20.8919 55.2188 21.6848 54.8903 22.2694 54.3057C22.854 53.7212 23.1824 52.9283 23.1824 52.1016C23.1824 51.2748 22.854 50.482 22.2694 49.8974C21.6848 49.3128 20.8919 48.9844 20.0652 48.9844ZM20.0652 53.4375H17.3933C17.039 53.4375 16.6992 53.2968 16.4487 53.0462C16.1981 52.7957 16.0574 52.4559 16.0574 52.1016C16.0574 51.7472 16.1981 51.4074 16.4487 51.1569C16.6992 50.9064 17.039 50.7656 17.3933 50.7656H20.0652C20.4195 50.7656 20.7593 50.9064 21.0098 51.1569C21.2604 51.4074 21.4011 51.7472 21.4011 52.1016C21.4011 52.4559 21.2604 52.7957 21.0098 53.0462C20.7593 53.2968 20.4195 53.4375 20.0652 53.4375Z" fill="#FFF599"/>
<path d="M26.8976 9.59929C27.5657 10.2674 28.4719 10.6427 29.4167 10.6427C30.3615 10.6427 31.2677 10.2674 31.9358 9.59929C32.6039 8.93118 32.9792 8.02504 32.9792 7.08021C32.9792 6.13537 32.6039 5.22923 31.9358 4.56113L30.4602 3.0857C30.0477 2.67084 29.557 2.34194 29.0164 2.11804C28.4759 1.89413 27.8964 1.77966 27.3113 1.78127H25.0082C24.7719 1.78127 24.5454 1.8751 24.3784 2.04212C24.2114 2.20915 24.1175 2.43568 24.1175 2.67189V4.97494C24.1159 5.55996 24.2304 6.1395 24.4543 6.68C24.6782 7.22049 25.007 7.71121 25.4218 8.12374L26.8976 9.59929ZM25.8988 3.56252H27.3111C27.6621 3.56154 28.0099 3.63021 28.3342 3.76455C28.6585 3.8989 28.9529 4.09624 29.2004 4.34515L30.676 5.82059C30.8414 5.98599 30.9726 6.18236 31.0621 6.39848C31.1517 6.61459 31.1977 6.84623 31.1977 7.08015C31.1977 7.31408 31.1517 7.54571 31.0621 7.76183C30.9726 7.97794 30.8414 8.17431 30.676 8.33972C30.3419 8.67375 29.8889 8.86141 29.4165 8.86141C28.9441 8.86141 28.491 8.67375 28.157 8.33972L26.6815 6.86406C26.4326 6.61659 26.2353 6.32219 26.1009 5.99792C25.9665 5.67365 25.8978 5.32594 25.8988 4.97494V3.56252Z" fill="#FFF599"/>
<path d="M17.3933 11.6846C17.8027 11.6853 18.2081 11.6052 18.5864 11.4488C18.9647 11.2923 19.3083 11.0627 19.5976 10.7731L21.4868 8.8839C21.7763 8.59443 22.0059 8.25077 22.1626 7.87256C22.3193 7.49434 22.3999 7.08898 22.3999 6.6796C22.3999 6.27023 22.3193 5.86486 22.1626 5.48665C22.0059 5.10843 21.7763 4.76478 21.4868 4.47531C21.1974 4.18583 20.8537 3.95621 20.4755 3.79955C20.0973 3.64289 19.6919 3.56226 19.2826 3.56226C18.8732 3.56226 18.4678 3.64289 18.0896 3.79955C17.7114 3.95621 17.3677 4.18583 17.0783 4.47531L15.189 6.36466C14.7529 6.80041 14.4558 7.35578 14.3354 7.96045C14.215 8.56513 14.2767 9.19193 14.5127 9.76151C14.7487 10.3311 15.1484 10.8179 15.6612 11.1602C16.174 11.5025 16.7768 11.685 17.3933 11.6846ZM16.4487 7.62422L18.3379 5.73498C18.4619 5.61037 18.6092 5.51144 18.7714 5.44385C18.9336 5.37626 19.1076 5.34134 19.2833 5.3411C19.4591 5.34085 19.6331 5.37529 19.7955 5.44243C19.958 5.50956 20.1055 5.60809 20.2298 5.73236C20.3541 5.85662 20.4526 6.00419 20.5198 6.1666C20.5869 6.329 20.6213 6.50307 20.6211 6.67881C20.6209 6.85455 20.586 7.02852 20.5184 7.19075C20.4508 7.35298 20.3519 7.50029 20.2273 7.62422L18.3379 9.51346C18.0867 9.76063 17.748 9.89851 17.3956 9.89707C17.0431 9.89564 16.7056 9.755 16.4564 9.5058C16.2072 9.25659 16.0665 8.91901 16.0651 8.56659C16.0636 8.21416 16.2015 7.87545 16.4487 7.62422Z" fill="#FFF599"/>
</svg>
