<svg width="44" height="45" viewBox="0 0 44 45" fill="none" xmlns="http://www.w3.org/2000/svg">
<path d="M37.0047 0.764153C36.6522 0.411624 36.0752 0.411624 35.7226 0.764153L22.6412 13.8456C22.2886 14.1981 21.7116 14.1981 21.3591 13.8456L8.27787 0.764153C7.92534 0.411624 7.34832 0.411624 6.99579 0.764153L0.264397 7.49529C-0.0881323 7.84782 -0.0881323 8.42485 0.264397 8.77738L13.3459 21.8588C13.6984 22.2114 13.6984 22.7884 13.3459 23.1409L0.264397 36.2224C-0.0881323 36.5749 -0.0881323 37.1519 0.264397 37.5045L6.99553 44.2356C7.34806 44.5881 7.92509 44.5881 8.27762 44.2356L21.3591 31.1542C21.7116 30.8016 22.2886 30.8016 22.6412 31.1542L35.7224 44.2354C36.0749 44.5879 36.6519 44.5879 37.0045 44.2354L43.7356 37.5042C44.0881 37.1517 44.0881 36.5747 43.7356 36.2221L30.6544 23.1409C30.3019 22.7884 30.3019 22.2114 30.6544 21.8588L43.7356 8.77763C44.0881 8.4251 44.0881 7.84807 43.7356 7.49554L37.0047 0.764153Z" fill="#CC202D"/>
</svg>
