<svg width="57" height="57" viewBox="0 0 57 57" fill="none" xmlns="http://www.w3.org/2000/svg">
<path d="M37.9339 0.446045C31.7128 0.446045 26.924 6.8289 24.1406 12.3941C22.2853 11.1014 20.2729 10.3408 18.1444 10.3408C7.66463 10.3408 0.00415039 28.7789 0.00415039 38.3758C0.00415039 48.3783 8.14189 56.516 18.1444 56.516C25.3126 56.516 31.5225 52.3365 34.4666 46.2868C45.6797 48.4604 56.0742 39.853 56.0742 28.481C56.0742 18.8842 48.4137 0.446045 37.9339 0.446045ZM18.1444 53.2178C9.96053 53.2178 3.30239 46.5598 3.30239 38.3758C3.30239 29.2907 10.6366 13.639 18.1444 13.639C26.0348 13.639 32.7505 29.8705 32.9758 37.8C33.2791 46.4346 26.3591 53.2178 18.1444 53.2178ZM35.6502 43.148C36.0099 41.8285 36.2347 40.3657 36.2757 38.9225C36.483 32.0465 32.5794 20.6905 26.7234 14.6235C29.3113 9.18571 33.4689 3.74428 37.9339 3.74428C45.4417 3.74428 52.7759 19.3959 52.7759 28.481C52.7759 37.5235 44.6929 44.546 35.6502 43.148Z" fill="#FFF599"/>
<path d="M18.1444 28.481C12.6885 28.481 8.24974 32.9197 8.24974 38.3757C8.24974 43.8316 12.6885 48.2704 18.1444 48.2704C23.6004 48.2704 28.0392 43.8316 28.0392 38.3757C28.0392 32.9197 23.6004 28.481 18.1444 28.481ZM18.1444 44.9721C14.5072 44.9721 11.548 42.013 11.548 38.3757C11.548 34.7384 14.5072 31.7792 18.1444 31.7792C21.7817 31.7792 24.7409 34.7384 24.7409 38.3757C24.7409 42.013 21.7817 44.9721 18.1444 44.9721Z" fill="#FFF599"/>
<path d="M16.4953 36.7268H19.7936V40.025H16.4953V36.7268Z" fill="#FFF599"/>
</svg>
