<svg width="57" height="57" viewBox="0 0 57 57" fill="none" xmlns="http://www.w3.org/2000/svg">
<g clip-path="url(#clip0)">
<path d="M56.4393 29.3494C51.7693 20.9898 44.0922 15.878 35.0939 14.9307C30.5825 9.23278 16.4268 7.7893 15.8159 7.72983C15.4178 7.68877 15.0173 7.86212 14.7732 8.18617C14.5279 8.50792 14.4674 8.93447 14.6135 9.31207C16.0014 12.9146 17.4232 17.0122 17.7995 18.6886C15.2289 19.8649 12.982 21.1157 11.5335 22.1581C8.39181 17.1319 1.97854 17.0692 1.68538 17.0692C1.0397 17.0692 0.517212 17.5916 0.517212 18.2373C0.517212 25.0054 2.87633 28.4026 4.45396 29.9187C2.87633 31.4347 0.517212 34.8318 0.517212 41.5999C0.517212 42.2456 1.0397 42.7681 1.68538 42.7681C1.97854 42.7681 8.39192 42.7053 11.5335 37.6792C13.458 39.0641 16.7854 40.8153 20.4214 42.2711C19.6179 43.5707 19.2074 45.6377 19.2074 48.6087C19.2074 49.2544 19.7298 49.7769 20.3755 49.7769C20.7229 49.7769 28.6665 49.708 32.6225 45.0675C42.6834 44.8731 51.3467 39.6038 56.4393 30.4878C56.6366 30.1342 56.6366 29.703 56.4393 29.3494ZM17.4813 10.2886C21.4064 10.8567 27.8502 12.2546 31.4917 14.7566C28.134 14.8878 23.8499 16.1572 19.9663 17.7502C19.4492 15.6969 18.3018 12.4889 17.4813 10.2886ZM21.571 47.3733C21.7266 44.124 22.4763 43.2935 22.6865 43.1236C24.9628 43.9226 27.2691 44.5575 29.3633 44.8762C26.8293 46.6592 23.375 47.2141 21.571 47.3733ZM22.5509 43.0806L22.5513 43.0775C22.5545 43.0786 22.5578 43.0794 22.5608 43.0806C22.5543 43.0798 22.5579 43.0816 22.5509 43.0806ZM32.0568 42.7681C25.2305 42.7681 14.0694 37.1636 12.0023 35.0486C11.781 34.8215 11.4787 34.6972 11.1673 34.6972C11.0965 34.6972 11.0247 34.7041 10.954 34.7166C10.5718 34.7874 10.2489 35.0452 10.0949 35.4022C8.5184 39.0582 4.81097 40.0565 2.88421 40.3291C3.24922 33.0089 6.71375 31.0526 6.89171 30.9578C7.2761 30.7605 7.51341 30.3623 7.5191 29.9301C7.5248 29.4931 7.27949 29.0859 6.8928 28.8806C6.73653 28.7974 3.25152 26.8546 2.88421 19.515C4.80977 19.7968 8.53089 20.8098 10.0949 24.4351C10.2489 24.7921 10.5718 25.05 10.954 25.1206C11.3396 25.1925 11.7308 25.0669 12.0023 24.7887C14.0694 22.6737 25.2305 17.0692 32.0568 17.0692C41.2798 17.0692 49.2685 21.7428 54.0734 29.9186C49.2685 38.0944 41.2798 42.7681 32.0568 42.7681Z" fill="#FFE713"/>
<path d="M35.5612 29.9187C35.5612 24.5435 37.6819 21.2512 37.7036 21.2182C38.0572 20.6797 37.9089 19.9565 37.3727 19.6006C36.8366 19.2469 36.1133 19.3918 35.7574 19.9257C35.6536 20.0809 33.2249 23.7951 33.2249 29.9187C33.2249 36.0423 35.6536 39.7565 35.7574 39.9117C35.9821 40.2493 36.3529 40.4319 36.7304 40.4319C36.9529 40.4319 37.1776 40.368 37.3772 40.2356C37.9145 39.8774 38.0594 39.1531 37.7012 38.6157C37.6796 38.584 35.5612 35.3431 35.5612 29.9187Z" fill="#FFE713"/>
<path d="M32.7002 19.6006C32.1629 19.2469 31.4419 19.3918 31.0848 19.9257C30.981 20.0808 28.5524 23.7951 28.5524 29.9186C28.5524 33.1892 29.2573 35.7592 29.8494 37.3391C30.0251 37.808 30.47 38.0977 30.9435 38.0977C31.0793 38.0977 31.2183 38.0737 31.353 38.0236C31.9577 37.7977 32.2634 37.1247 32.0375 36.5201C31.5139 35.1204 30.8887 32.8388 30.8887 29.9186C30.8887 24.5434 33.0094 21.2511 33.0311 21.2181C33.3846 20.6797 33.2363 19.9565 32.7002 19.6006Z" fill="#FFE713"/>
<path d="M42.5698 28.7503C43.8601 28.7503 44.9061 27.7044 44.9061 26.4141C44.9061 25.1238 43.8601 24.0779 42.5698 24.0779C41.2796 24.0779 40.2336 25.1238 40.2336 26.4141C40.2336 27.7044 41.2796 28.7503 42.5698 28.7503Z" fill="#FFE713"/>
</g>
<defs>
<clipPath id="clip0">
<rect width="56.07" height="56.07" fill="white" transform="translate(0.517212 0.715332)"/>
</clipPath>
</defs>
</svg>
