<svg width="52" height="57" viewBox="0 0 52 57" fill="none" xmlns="http://www.w3.org/2000/svg">
<g clip-path="url(#clip0)">
<path d="M44.5833 0.0292969C40.8074 0.0292969 37.7355 3.37819 37.7355 7.49453V12.9484L36.103 14.728C35.8877 12.9847 35.168 11.3018 33.9415 9.96473L27.8578 3.33242L24.9364 6.51738C21.9608 9.76115 21.9608 15.0393 24.9364 18.283L28.8892 22.5923L25.4451 26.347C25.2297 24.6036 24.5101 22.9207 23.2835 21.5836L17.1999 14.9513L14.2783 18.1363C11.3027 21.3801 11.3027 26.6582 14.2783 29.902L18.2311 34.2112L14.7871 37.9658C14.5717 36.2224 13.8521 34.5396 12.6256 33.2024L6.54182 26.5701L3.62037 29.7551C0.644784 32.999 0.644784 38.277 3.62037 41.5208L7.57316 45.83L0.283157 53.7775L2.41404 56.1005L9.70405 48.1532L13.6569 52.4624C15.1447 54.0843 17.099 54.8952 19.0532 54.8952C21.0074 54.8952 22.9618 54.0843 24.4495 52.4624L27.371 49.2775L21.2873 42.6452C20.0608 41.3081 18.5172 40.5236 16.918 40.2888L20.362 36.5343L24.3149 40.8434C25.8027 42.4654 27.7569 43.2763 29.7112 43.2763C31.6655 43.2763 33.6198 42.4654 35.1074 40.8434L38.029 37.6585L31.9452 31.0263C30.7187 29.6892 29.1752 28.9047 27.576 28.6699L31.0201 24.9152L34.9729 29.2244C36.4609 30.8466 38.4147 31.6573 40.3692 31.6573C42.3232 31.6573 44.2779 30.8461 45.7655 29.2244L48.687 26.0395L42.6033 19.4073C41.3769 18.0702 39.8331 17.2856 38.2339 17.0508L39.8664 15.2712H44.8692C48.6451 15.2712 51.717 11.9223 51.717 7.80598V0.0292969L44.5833 0.0292969ZM31.02 20.2692L27.0671 15.96C25.2666 13.9972 25.2666 10.8032 27.0671 8.8404L27.8576 7.97845L31.8105 12.2876C33.611 14.2506 33.611 17.4444 31.8105 19.4074L31.02 20.2692ZM20.362 31.8882L16.4091 27.5789C14.6086 25.6161 14.6086 22.4222 16.4091 20.4593L17.1998 19.5974L21.1527 23.9067C22.9532 25.8695 22.9532 29.0634 21.1527 31.0263L20.362 31.8882ZM9.70405 43.5071L5.75116 39.198C3.95066 37.235 3.95066 34.0412 5.75116 32.0782L6.54182 31.2164L10.4947 35.5256C12.2952 37.4884 12.2952 40.6824 10.4947 42.6452L9.70405 43.5071ZM19.1564 44.9682L23.1092 49.2775L22.3186 50.1395C20.518 52.1023 17.5883 52.1023 15.7877 50.1395L11.8349 45.8302L12.6256 44.9682C14.4262 43.0054 17.3558 43.0055 19.1564 44.9682ZM29.8143 33.3493L33.7672 37.6586L32.9766 38.5205C31.176 40.4834 28.2463 40.4834 26.4458 38.5205L22.4929 34.2112L23.2835 33.3493C25.0841 31.3865 28.0137 31.3866 29.8143 33.3493ZM40.4723 21.7304L44.4251 26.0397L43.6344 26.9016C41.8338 28.8645 38.9041 28.8644 37.1036 26.9016L33.1508 22.5923L33.9414 21.7304C35.7421 19.7675 38.6718 19.7675 40.4723 21.7304ZM48.7033 7.80608C48.7033 10.1109 46.9833 11.986 44.8691 11.986H40.7489V7.49453C40.7489 5.18969 42.469 3.31457 44.5832 3.31457H48.7032V7.80608H48.7033Z" fill="#FFF599"/>
</g>
<defs>
<clipPath id="clip0">
<rect width="51.4337" height="56.0712" fill="white" transform="translate(0.283157 0.0292969)"/>
</clipPath>
</defs>
</svg>
