<svg width="58" height="57" viewBox="0 0 58 57" fill="none" xmlns="http://www.w3.org/2000/svg">
<g clip-path="url(#clip0)">
<path d="M39.2017 40.5276C39.1705 40.1704 38.9611 39.84 38.65 39.6605L34.6814 37.369V32.7826C34.6814 32.3848 34.469 32.017 34.1242 31.8182L29.5966 29.2056C29.2522 29.0068 28.8282 29.0066 28.4838 29.2052L23.9548 31.8185C23.6104 32.0174 23.3982 32.385 23.3982 32.7826V37.3688L19.4271 39.6602C19.0823 39.859 18.8699 40.2267 18.8699 40.6246V45.8537C18.8699 46.2516 19.0823 46.6193 19.4271 46.8181L23.9548 49.4307C24.1271 49.5302 24.3192 49.5798 24.5115 49.5798C24.7037 49.5798 24.8959 49.5302 25.0681 49.4307L29.0397 47.1391L33.0119 49.431C33.184 49.5303 33.3761 49.5798 33.568 49.5798C33.7603 49.5798 33.9524 49.5302 34.1247 49.4307L38.6499 46.8178C38.9898 46.6216 39.2065 46.2459 39.2065 45.8537V40.6246C39.2066 40.5928 39.2044 40.5593 39.2017 40.5276ZM25.6248 33.4255L29.0394 31.4551L32.4548 33.4259V37.3688L29.0399 39.3393L25.6249 37.369V33.4255H25.6248ZM24.5115 47.1811L21.0965 45.2105V41.2679L24.5115 39.2971L27.9266 41.2676V45.2108L24.5115 47.1811ZM33.5678 47.1812L30.1531 45.2109V41.2673L33.5678 39.297L36.98 41.2673V45.2109L33.5678 47.1812Z" fill="#898989"/>
<path d="M54.3531 24.6186C55.3339 23.123 55.2004 21.0949 54.0051 19.3256L49.153 12.1416V7.86102C50.8241 7.37718 52.0499 5.83418 52.0499 4.00928C52.0498 1.79797 50.2509 -0.000976562 48.0398 -0.000976562H10.0367C7.8255 -0.000976562 6.02655 1.79797 6.02655 4.00917C6.02655 5.83406 7.25238 7.37718 8.92342 7.8609V12.1414L4.07107 19.3259C2.87696 21.0959 2.74515 23.1245 3.72673 24.62C3.82236 24.7657 3.92812 24.9016 4.0399 25.0305C3.40266 27.6336 3.07914 30.324 3.07914 33.0383C3.07914 37.7661 4.02476 42.2848 5.88973 46.4691C7.67398 50.4721 10.282 54.0201 13.4318 56.7296C13.6337 56.9034 13.8913 56.9989 14.1577 56.9989H43.9215C44.188 56.9989 44.4455 56.9034 44.6475 56.7296C47.797 54.0204 50.4044 50.4723 52.188 46.4688C54.0518 42.2852 54.9969 37.7665 54.9969 33.0383C54.9969 30.3148 54.6738 27.6257 54.0376 25.0339C54.1508 24.904 54.2564 24.7657 54.3531 24.6186ZM8.25311 4.00917C8.25311 3.02581 9.05322 2.22559 10.0367 2.22559H48.0397C49.0231 2.22559 49.8232 3.02581 49.8232 4.00917C49.8232 4.99254 49.0231 5.79276 48.0397 5.79276H34.0319C33.4172 5.79276 32.9186 6.29129 32.9186 6.90604C32.9186 7.5208 33.4172 8.01932 34.0319 8.01932H46.9264V11.3689H11.15V8.01944H24.035C24.6497 8.01944 25.1483 7.52091 25.1483 6.90615C25.1483 6.2914 24.6497 5.79287 24.035 5.79287H10.0367C9.05322 5.79287 8.25311 4.99265 8.25311 4.00917ZM43.5037 54.7725H14.576C8.67905 49.5329 5.30581 41.6373 5.30581 33.0384C5.30581 30.7412 5.55396 28.4633 6.0428 26.2484C6.63752 26.3961 7.28222 26.417 7.94217 26.2937C8.93856 26.1061 9.71051 25.5407 10.3671 24.841C11.4356 25.796 12.7316 26.3249 14.0661 26.3248H14.0681C15.4189 26.3242 16.7301 25.7816 17.8047 24.8038C18.8832 25.8013 20.1782 26.3385 21.5501 26.339H21.552C22.9254 26.3389 24.2223 25.8011 25.3026 24.8019C26.3744 25.7724 27.6857 26.3106 29.0399 26.3106C30.3938 26.3106 31.7048 25.7726 32.7767 24.8024C33.8552 25.8007 35.1511 26.3385 36.5234 26.339H36.5253C37.8979 26.3389 39.1945 25.8017 40.2744 24.8034C41.3496 25.7819 42.6617 26.3248 44.0133 26.3248C45.3475 26.3248 46.6435 25.7955 47.711 24.8403C48.3691 25.5403 49.1415 26.1061 50.1364 26.2942C50.4274 26.3484 50.7155 26.3749 50.9979 26.3749C51.3552 26.3749 51.7027 26.3316 52.0348 26.2491C52.5227 28.4553 52.7705 30.7329 52.7705 33.0384C52.7707 41.639 49.3986 49.5345 43.5037 54.7725ZM52.4911 23.3976C52.0995 23.9948 51.3723 24.26 50.5468 24.1058C49.9724 23.9972 49.4401 23.5415 48.6481 22.4797C48.4379 22.1981 48.1072 22.0321 47.7557 22.0321C47.7555 22.0321 47.7553 22.0321 47.7551 22.0321C47.4035 22.0322 47.0727 22.1985 46.8627 22.4805C46.0858 23.5237 45.0739 24.0982 44.013 24.0982C42.9522 24.0982 41.9401 23.5237 41.1633 22.4805C40.9533 22.1985 40.6225 22.0323 40.271 22.0321C40.2707 22.0321 40.2705 22.0321 40.2703 22.0321C39.9191 22.0321 39.5882 22.198 39.378 22.4796C38.5921 23.5327 37.579 24.1126 36.525 24.1126C36.5247 24.1126 36.5243 24.1126 36.524 24.1126C35.4707 24.1121 34.4587 23.5325 33.6747 22.4802C33.4645 22.1983 33.1336 22.0322 32.7819 22.0322C32.4302 22.0322 32.0993 22.1983 31.8892 22.4803C31.1186 23.5145 30.1065 24.0842 29.0393 24.0842C27.9721 24.0842 26.96 23.5145 26.1894 22.4803C25.9794 22.1984 25.6487 22.0323 25.297 22.0322C25.297 22.0322 25.2968 22.0322 25.2967 22.0322C24.9453 22.0322 24.6146 22.198 24.4044 22.4797C23.6184 23.5328 22.6053 24.1127 21.5513 24.1127C21.5509 24.1127 21.5506 24.1127 21.5503 24.1127C20.4969 24.1123 19.485 23.5326 18.7009 22.4803C18.4907 22.1983 18.1598 22.0322 17.808 22.0323C17.4562 22.0324 17.1252 22.1986 16.9151 22.4807C16.1387 23.5235 15.127 24.098 14.0663 24.0984C14.0659 24.0984 14.0655 24.0984 14.0652 24.0984C13.0037 24.0984 11.9906 23.5237 11.2123 22.4801C11.0021 22.1983 10.6714 22.0323 10.3198 22.0323C10.3195 22.0323 10.3192 22.0323 10.3189 22.0323C9.96712 22.0326 9.63614 22.1991 9.42629 22.4814C8.63808 23.5418 8.10627 23.9972 7.53115 24.1056C6.70609 24.2591 5.97912 23.9954 5.58725 23.3985C5.09985 22.656 5.22276 21.5991 5.91566 20.5718L10.6273 13.5956H18.0544L15.4761 17.2386C15.1208 17.7406 15.2397 18.4353 15.7416 18.7904C15.937 18.9287 16.1614 18.9952 16.3838 18.9952C16.7329 18.9952 17.0766 18.8314 17.2935 18.5249L20.7823 13.5956H27.9256V17.8818C27.9256 18.4965 28.4241 18.9951 29.0388 18.9951C29.6536 18.9951 30.1521 18.4965 30.1521 17.8818V13.5956H37.2954L40.7842 18.5249C41.001 18.8314 41.3448 18.9952 41.6938 18.9952C41.9162 18.9952 42.1407 18.9287 42.3361 18.7904C42.838 18.4353 42.9569 17.7405 42.6016 17.2386L40.0233 13.5956H47.4473L52.159 20.572C52.854 21.599 52.9777 22.6555 52.4911 23.3976Z" fill="#898989"/>
<path d="M29.0335 8.01953H29.0399C29.6546 8.01953 30.15 7.521 30.15 6.90625C30.15 6.2915 29.6484 5.79297 29.0336 5.79297C28.4189 5.79297 27.9203 6.2915 27.9203 6.90625C27.9203 7.521 28.4188 8.01953 29.0335 8.01953Z" fill="#898989"/>
</g>
<defs>
<clipPath id="clip0">
<rect width="57" height="57" fill="white" transform="translate(0.539185 -0.000976562)"/>
</clipPath>
</defs>
</svg>
