<svg width="57" height="57" viewBox="0 0 57 57" fill="none" xmlns="http://www.w3.org/2000/svg">
<g clip-path="url(#clip0)">
<path d="M51.6173 21.0542C51.2021 20.5934 50.6108 20.3303 49.9904 20.3303H25.7884C25.168 20.3303 24.5767 20.5934 24.1614 21.0542C23.7461 21.515 23.5457 22.1304 23.6099 22.7475L26.5886 51.3419C26.88 54.1401 29.2213 56.2502 32.0346 56.2502H43.7442C46.5575 56.2502 48.8988 54.1401 49.1902 51.3419C49.3156 50.1388 48.4418 49.0618 47.2387 48.9365C46.0351 48.8117 44.9587 49.6849 44.8333 50.8882C44.7751 51.4478 44.3068 51.8697 43.7442 51.8697H32.0346C31.4719 51.8697 31.0037 51.4477 30.9455 50.888L29.1312 33.4717H46.6476L45.8613 41.0202C45.7359 42.2233 46.6097 43.3002 47.8128 43.4255C49.0157 43.5514 50.0928 42.6771 50.2182 41.474L52.169 22.7475C52.2331 22.1305 52.0327 21.515 51.6173 21.0542ZM28.6749 29.0913L28.2185 24.7108H47.5602L47.1038 29.0913H28.6749ZM23.1601 54.0599C23.1601 55.2696 22.1795 56.2502 20.9698 56.2502H13.6326C8.80177 56.2502 4.87162 52.32 4.87162 47.4892V31.1227C4.87162 26.511 6.41157 21.9513 9.20784 18.2839C11.4256 15.375 12.647 11.7587 12.647 8.10094V4.56064H12.0994C10.8897 4.56064 9.90916 3.58008 9.90916 2.37041C9.90916 1.16074 10.8897 0.180176 12.0994 0.180176H29.5118C30.7214 0.180176 31.702 1.16074 31.702 2.37041C31.702 3.58008 30.7214 4.56064 29.5118 4.56064H28.9642V8.32511C28.9642 9.98848 29.2105 11.6386 29.6963 13.2295C30.0496 14.3864 29.3981 15.6106 28.2412 15.9639C28.0281 16.0289 27.8126 16.0599 27.6008 16.0599C26.6627 16.0599 25.7949 15.4526 25.5068 14.5087C24.8943 12.5029 24.5837 10.4225 24.5837 8.32511V4.56064H17.0274V8.10094C17.0274 12.7127 15.4875 17.2723 12.6912 20.9398C10.4735 23.8486 9.25209 27.465 9.25209 31.1227V47.4892C9.25209 49.9046 11.2172 51.8697 13.6326 51.8697H20.9698C22.1795 51.8697 23.1601 52.8503 23.1601 54.0599Z" fill="#898989"/>
</g>
<defs>
<clipPath id="clip0">
<rect width="56.07" height="56.07" fill="white" transform="translate(0.49115 0.180176)"/>
</clipPath>
</defs>
</svg>
