<svg width="58" height="58" viewBox="0 0 58 58" fill="none" xmlns="http://www.w3.org/2000/svg">
<g clip-path="url(#clip0)">
<path d="M10.5022 2.85654V7.23699L0.302096 18.3643C0.274471 18.4028 0.250008 18.4435 0.228946 18.4859C0.186718 18.541 0.150715 18.6006 0.121596 18.6636C0.0991328 18.7313 0.0850937 18.8015 0.0797961 18.8726C0.0667968 18.9164 0.0575796 18.9612 0.0522461 19.0065V57.0065C0.0522461 57.5312 0.477576 57.9565 1.00225 57.9565H31.3547C31.8794 57.9565 32.3048 57.5312 32.3048 57.0065C32.3048 56.4819 31.8794 56.0565 31.3547 56.0565H22.8522V19.9565H37.1022V30.4445C37.1022 30.9692 37.5276 31.3945 38.0522 31.3945C38.5769 31.3945 39.0023 30.9692 39.0023 30.4445V19.0065C38.9969 18.9612 38.9877 18.9164 38.9747 18.8726C38.9694 18.8015 38.9554 18.7313 38.9329 18.6636C38.9038 18.6006 38.8678 18.541 38.8256 18.4859C38.8045 18.4435 38.78 18.4028 38.7524 18.3643L28.5522 7.23699V2.85654C28.5522 1.8072 27.7016 0.956543 26.6522 0.956543H12.4022C11.3529 0.956543 10.5022 1.8072 10.5022 2.85654ZM3.1616 18.0565L11.4522 9.01254L19.7429 18.0565H3.1616ZM20.9522 56.0565H1.95225V19.9565H20.9522V56.0565ZM35.8929 18.0565H22.3202L13.6116 8.55654H27.1842L35.8929 18.0565ZM12.4022 2.85654H26.6522V6.65654H12.4022V2.85654Z" fill="#FFF599"/>
<path d="M17.1523 36.3545V33.609C19.9266 31.7892 20.8448 28.1477 19.2651 25.23C19.128 24.9577 18.8686 24.7677 18.5677 24.7192C18.2667 24.6706 17.9607 24.7695 17.7451 24.9849L14.935 27.795C12.8859 26.2085 10.0233 26.2085 7.97431 27.795L5.16041 24.9849C4.94473 24.7695 4.63876 24.6706 4.33779 24.7192C4.03683 24.7677 3.77744 24.9577 3.64041 25.23C2.06044 28.1475 2.97823 31.7889 5.75226 33.609V36.3545C4.05448 37.7581 3.41934 40.0757 4.16434 42.1487C4.90934 44.2217 6.87444 45.6048 9.07726 45.6066H13.8273C16.0301 45.6048 17.9952 44.2217 18.7402 42.1487C19.4852 40.0757 18.85 37.7581 17.1523 36.3545ZM18.0073 27.4131C18.3383 28.7676 17.9832 30.1982 17.0573 31.2407C16.9175 30.5107 16.6353 29.8154 16.227 29.1944L18.0073 27.4131ZM4.89726 27.4074L6.68231 29.1925C6.27393 29.8159 5.99274 30.5139 5.85486 31.2464C4.9153 30.2066 4.55614 28.7667 4.89726 27.4074ZM7.65226 32.3066C7.65524 30.7781 8.57243 29.3996 9.98119 28.8065C11.3899 28.2134 13.0169 28.5206 14.1123 29.5867L14.1493 29.6276C14.1636 29.6447 14.1778 29.6599 14.193 29.676C14.8731 30.3828 15.2528 31.3257 15.2523 32.3066V35.3589C14.789 35.2256 14.3093 35.1575 13.8273 35.1566H9.07726C8.59517 35.1575 8.11556 35.2256 7.65226 35.3589V32.3066ZM13.8273 43.7066H9.07726C7.24091 43.7066 5.75226 42.2179 5.75226 40.3816C5.75226 38.5452 7.24091 37.0566 9.07726 37.0566H13.8273C15.6636 37.0566 17.1523 38.5452 17.1523 40.3816C17.1523 42.2179 15.6636 43.7066 13.8273 43.7066Z" fill="#FFF599"/>
<path d="M9.55224 33.2564C10.0769 33.2564 10.5022 32.8311 10.5022 32.3064C10.5022 31.7818 10.0769 31.3564 9.55224 31.3564C9.02756 31.3564 8.60223 31.7818 8.60223 32.3064C8.60223 32.8311 9.02756 33.2564 9.55224 33.2564Z" fill="#FFF599"/>
<path d="M13.3523 33.2564C13.8769 33.2564 14.3023 32.8311 14.3023 32.3064C14.3023 31.7818 13.8769 31.3564 13.3523 31.3564C12.8276 31.3564 12.4023 31.7818 12.4023 32.3064C12.4023 32.8311 12.8276 33.2564 13.3523 33.2564Z" fill="#FFF599"/>
<path d="M9.55224 38.9563C9.02756 38.9563 8.60223 39.3816 8.60223 39.9063V40.8563C8.60223 41.381 9.02756 41.8063 9.55224 41.8063C10.0769 41.8063 10.5022 41.381 10.5022 40.8563V39.9063C10.5022 39.3816 10.0769 38.9563 9.55224 38.9563Z" fill="#FFF599"/>
<path d="M13.3523 38.9563C12.8276 38.9563 12.4023 39.3816 12.4023 39.9063V40.8563C12.4023 41.381 12.8276 41.8063 13.3523 41.8063C13.8769 41.8063 14.3023 41.381 14.3023 40.8563V39.9063C14.3023 39.3816 13.8769 38.9563 13.3523 38.9563Z" fill="#FFF599"/>
<path d="M43.7522 31.3566C44.2769 31.3566 44.7022 30.9313 44.7022 30.4066C44.7022 29.9705 44.8922 29.7824 45.3444 29.3616C46.1338 28.7986 46.6024 27.8887 46.6024 26.9191C46.6024 25.9495 46.1338 25.0397 45.3444 24.4767C44.8875 24.0577 44.7022 23.8706 44.7022 23.4317C44.7022 22.9928 44.8922 22.8104 45.3435 22.3924C46.118 21.8195 46.5829 20.9197 46.6023 19.9566C46.6023 19.4319 46.1769 19.0066 45.6522 19.0066C45.1276 19.0066 44.7022 19.4319 44.7022 19.9566C44.7022 20.3917 44.5122 20.5779 44.061 20.9959C43.2716 21.5585 42.803 22.468 42.803 23.4374C42.803 24.4067 43.2716 25.3163 44.061 25.8789C44.5179 26.2978 44.7032 26.4859 44.7032 26.9239C44.7032 27.3618 44.5132 27.5471 44.061 27.9689C43.2862 28.5424 42.8213 29.4428 42.8022 30.4066C42.8022 30.9313 43.2276 31.3566 43.7522 31.3566Z" fill="#FFF599"/>
<path d="M51.0435 22.3971C51.8193 21.8232 52.2844 20.9214 52.3023 19.9566C52.3023 19.4319 51.8769 19.0066 51.3523 19.0066C50.8276 19.0066 50.4023 19.4319 50.4023 19.9566C50.4023 20.3917 50.2123 20.5779 49.761 20.9959C48.9717 21.5585 48.503 22.468 48.503 23.4374C48.503 24.4067 48.9717 25.3163 49.761 25.8789C50.218 26.2978 50.4032 26.4859 50.4032 26.9239C50.4032 27.3618 50.2132 27.5471 49.761 27.9689C48.9862 28.5424 48.5213 29.4428 48.5023 30.4066C48.5023 30.9313 48.9276 31.3566 49.4523 31.3566C49.9769 31.3566 50.4023 30.9313 50.4023 30.4066C50.4023 29.9705 50.5923 29.7824 51.0445 29.3616C51.8338 28.7986 52.3024 27.8887 52.3024 26.9191C52.3024 25.9495 51.8338 25.0397 51.0445 24.4767C50.5875 24.0577 50.4023 23.8706 50.4023 23.4317C50.4023 22.9928 50.5923 22.8151 51.0435 22.3971Z" fill="#FFF599"/>
<path d="M7.65224 52.2565H5.75224V50.3565C5.75224 49.8318 5.32691 49.4065 4.80223 49.4065C4.27756 49.4065 3.85223 49.8318 3.85223 50.3565V53.2065C3.85223 53.7312 4.27756 54.1565 4.80223 54.1565H7.65224C8.17691 54.1565 8.60224 53.7312 8.60224 53.2065C8.60224 52.6818 8.17691 52.2565 7.65224 52.2565Z" fill="#FFF599"/>
<path d="M46.6023 54.1565H49.1188C49.385 54.1574 49.6394 54.0466 49.82 53.851C50.0007 53.6554 50.0909 53.3929 50.0688 53.1276L49.8285 50.2463C49.8035 49.9055 49.5975 49.6045 49.2889 49.4578C48.9804 49.3111 48.6168 49.3413 48.3368 49.5371C48.0567 49.7328 47.9034 50.0638 47.9351 50.404L48.0871 52.2565H46.6023C46.0776 52.2565 45.6523 52.6818 45.6523 53.2065C45.6523 53.7312 46.0776 54.1565 46.6023 54.1565Z" fill="#FFF599"/>
<path d="M32.9983 49.4066H33.9321L33.5626 53.8412C33.4744 54.9001 33.8336 55.9476 34.5531 56.7296C35.2726 57.5116 36.2866 57.9565 37.3493 57.9566H50.1543C51.2169 57.9565 52.231 57.5116 52.9505 56.7296C53.67 55.9476 54.0292 54.9001 53.941 53.8412L53.5002 48.544L56.9953 35.6173C57.1371 35.0498 57.0096 34.4485 56.6496 33.9874C56.2896 33.5263 55.7373 33.2567 55.1523 33.2566H38.7743C37.0488 33.2701 35.5463 34.4379 35.1073 36.1066H33.4733C31.5013 36.1174 29.861 37.6261 29.6856 39.5902L29.2106 45.2902C29.1245 46.349 29.4845 47.3955 30.2037 48.1772C30.923 48.9588 31.936 49.4045 32.9983 49.4066ZM38.7743 35.1566H55.1523L53.0366 42.9798L52.6984 38.9233C52.65 38.4046 52.1929 38.0216 51.6737 38.0649C51.1545 38.1081 50.767 38.5614 50.8051 39.081L52.0477 53.996C52.0926 54.526 51.9134 55.0505 51.5535 55.4421C51.1937 55.8337 50.6862 56.0566 50.1543 56.0566H37.3493C36.818 56.0566 36.3109 55.8341 35.9512 55.4431C35.5914 55.0521 35.4118 54.5284 35.4559 53.9989L36.8809 36.8989C36.9681 35.9167 37.7882 35.162 38.7743 35.1566ZM31.5799 39.7479C31.6672 38.7659 32.4874 38.0115 33.4733 38.0066H34.8821L34.0908 47.5066H32.9983C32.4673 47.5049 31.9612 47.2817 31.6018 46.8909C31.2424 46.5002 31.0623 45.9772 31.1049 45.4479L31.5799 39.7479Z" fill="#FFF599"/>
</g>
<defs>
<clipPath id="clip0">
<rect width="57" height="57" fill="white" transform="translate(0.0522461 0.956543)"/>
</clipPath>
</defs>
</svg>
