<svg width="57" height="57" viewBox="0 0 57 57" fill="none" xmlns="http://www.w3.org/2000/svg">
<path d="M30.2812 13.3594C30.7731 13.3594 31.1719 12.9606 31.1719 12.4688C31.1719 11.9769 30.7731 11.5781 30.2812 11.5781C29.7894 11.5781 29.3906 11.9769 29.3906 12.4688C29.3906 12.9606 29.7894 13.3594 30.2812 13.3594Z" fill="#FFF599"/>
<path d="M39.3879 33.8666L39.3623 33.861C36.8993 33.4098 34.4084 33.1271 31.907 33.0149C32.4641 32.4859 32.9183 31.8583 33.2466 31.1637C33.2829 31.1666 33.3192 31.1698 33.3558 31.1714C33.3693 31.1714 33.3827 31.1723 33.3962 31.1723H43.6406C47.2539 31.1723 50.2523 29.9906 52.3114 27.7545C54.2135 25.6891 55.2188 22.8668 55.2188 19.5938C55.2188 19.5689 55.218 19.5443 55.2177 19.5195H55.2188L55.2177 19.5182C55.1945 16.4618 53.9649 13.5383 51.7967 11.384C49.6285 9.22979 46.6971 8.01915 43.6406 8.01562H24.0469C23.3385 8.01483 22.6594 7.73307 22.1585 7.23217C21.6576 6.73127 21.3758 6.05213 21.375 5.34375V3.5625C21.375 3.32629 21.2812 3.09976 21.1141 2.93273C20.9471 2.76571 20.7206 2.67188 20.4844 2.67188C20.2482 2.67188 20.0216 2.76571 19.8546 2.93273C19.6876 3.09976 19.5938 3.32629 19.5938 3.5625V5.34375C19.5951 6.37477 19.9537 7.37346 20.6084 8.16994C21.2631 8.96641 22.1735 9.51147 23.1847 9.71238C23.2126 10.1178 23.2618 10.5216 23.3323 10.9218C22.7509 11.1677 22.1127 11.2477 21.4887 11.1529C21.192 11.1081 20.9102 10.9935 20.6665 10.8184C20.4228 10.6434 20.2241 10.413 20.0869 10.1461L19.5427 8.609C19.5043 8.49784 19.4444 8.39537 19.3662 8.3075C19.2881 8.21963 19.1934 8.14809 19.0875 8.09703C18.9815 8.04596 18.8666 8.01637 18.7492 8.00997C18.6318 8.00357 18.5142 8.02047 18.4034 8.05972C18.2926 8.09896 18.1906 8.15977 18.1034 8.23862C18.0161 8.31748 17.9454 8.41282 17.8952 8.51915C17.845 8.62549 17.8164 8.74071 17.811 8.85816C17.8056 8.97562 17.8234 9.09299 17.8636 9.2035L18.4277 10.7967C18.4399 10.8313 18.4543 10.865 18.4707 10.8978C18.7288 11.4217 19.1076 11.8768 19.576 12.2257C20.0444 12.5746 20.5889 12.8072 21.1648 12.9045C21.4366 12.9542 21.7124 12.9789 21.9886 12.9784C22.5997 12.9742 23.2055 12.8655 23.7798 12.657C24.5643 14.9387 26.0409 16.919 28.0038 18.322C29.9668 19.725 32.3184 20.4809 34.7313 20.4844H34.735H34.7388H43.6406C44.1198 20.4845 44.5798 20.6727 44.9215 21.0086C45.2632 21.3445 45.4594 21.8012 45.4677 22.2803C45.476 22.7594 45.2958 23.2226 44.966 23.5702C44.6361 23.9178 44.183 24.1219 43.7041 24.1386C43.6974 24.1386 43.6905 24.1386 43.6838 24.1396L33.3557 24.7362C33.1204 24.7471 32.887 24.7835 32.6597 24.8449C32.0803 24.0477 31.321 23.3987 30.4434 22.9505C29.5658 22.5023 28.5948 22.2676 27.6094 22.2656H25.8281C25.5919 22.2656 25.3654 22.3595 25.1984 22.5265C25.0313 22.6935 24.9375 22.92 24.9375 23.1562C24.9381 24.2324 25.2172 25.2902 25.7476 26.2266C26.278 27.163 27.0418 27.9462 27.9645 28.5C27.1154 29.0103 26.4001 29.7155 25.8776 30.5572C25.3551 31.3988 25.0405 32.3528 24.9598 33.3401C21.1793 34.0013 17.4316 35.5071 13.7713 37.8411C13.4379 38.0538 13.1232 38.2944 12.8306 38.5604C11.9571 37.1207 10.7273 35.9304 9.25994 35.1042C7.79257 34.2781 6.13708 33.844 4.45312 33.8438H2.67188C2.43567 33.8438 2.20913 33.9376 2.04211 34.1046C1.87508 34.2716 1.78125 34.4982 1.78125 34.7344C1.78305 36.6102 2.32264 38.4462 3.33605 40.0247C4.34947 41.6033 5.79422 42.8581 7.49906 43.6406C5.79422 44.4231 4.34947 45.678 3.33605 47.2565C2.32264 48.835 1.78305 50.671 1.78125 52.5469C1.78125 52.7831 1.87508 53.0096 2.04211 53.1766C2.20913 53.3437 2.43567 53.4375 2.67188 53.4375H4.45312C6.13706 53.4373 7.79253 53.0031 9.25988 52.177C10.7272 51.3508 11.957 50.1605 12.8305 48.7209C13.1231 48.9868 13.4378 49.2274 13.7712 49.4402C18.8579 52.6836 24.113 54.3281 29.3906 54.3281C32.7349 54.3228 36.072 54.019 39.3622 53.4202L39.3878 53.4147C51.2096 50.6871 54.948 44.3509 55.1014 44.0825C55.1783 43.9479 55.2188 43.7956 55.2188 43.6406C55.2188 43.4856 55.1783 43.3333 55.1014 43.1988C54.948 42.9304 51.2096 36.5947 39.3879 33.8666ZM48.2527 28.5105C46.1674 27.9607 45.6179 26.2728 45.4736 25.4255C46.2863 24.9488 46.879 24.1717 47.1239 23.2619C47.4091 23.2846 47.6869 23.296 47.9573 23.2961C49.854 23.3089 51.7087 22.7368 53.2686 21.6577C52.7924 24.5009 51.2719 27.1781 48.2526 28.5105H48.2527ZM42.4605 18.7031H37.0072C37.5504 17.9801 37.9707 17.1726 38.2512 16.3129C38.2882 16.2019 38.303 16.0848 38.2947 15.9681C38.2864 15.8514 38.2552 15.7375 38.2029 15.6329C38.1506 15.5283 38.0782 15.435 37.9898 15.3584C37.9015 15.2817 37.7989 15.2233 37.6879 15.1863C37.5769 15.1493 37.4598 15.1345 37.3431 15.1428C37.2264 15.1511 37.1125 15.1823 37.0079 15.2346C36.9033 15.2869 36.81 15.3593 36.7334 15.4477C36.6567 15.536 36.5983 15.6386 36.5613 15.7496C36.2803 16.6373 35.8023 17.4501 35.1632 18.1272C34.9602 18.3394 34.7361 18.5304 34.4945 18.6973C32.0936 18.6361 29.7987 17.6961 28.0446 16.0557C26.2905 14.4152 25.1992 12.1883 24.9776 9.79688H43.6406C44.8512 9.79576 46.0514 10.0202 47.1799 10.4586C46.8659 15.073 43.354 18.024 42.4605 18.7031ZM44.9112 18.9347C46.403 17.4695 48.4195 14.8869 48.8856 11.3225C50.2217 12.1698 51.3327 13.328 52.1239 14.6981C52.915 16.0681 53.3628 17.6094 53.4288 19.1901C52.6495 20.025 50.5694 21.7881 47.1509 21.4755C47.0129 20.9016 46.7367 20.3701 46.3463 19.9272C45.956 19.4844 45.4633 19.1437 44.9112 18.9347ZM38.2129 26.24L43.7482 25.9203C43.9654 26.9793 44.5435 28.2888 45.7448 29.232C45.0487 29.3399 44.3451 29.393 43.6406 29.3906H39.4851C38.9928 28.9877 37.7778 27.8039 38.2129 26.24ZM33.4474 26.515L36.3754 26.3459C36.2164 27.5237 36.5846 28.5674 37.1168 29.3906H33.4187C33.0493 29.3695 32.7022 29.2069 32.4494 28.9366C32.1967 28.6664 32.0578 28.3091 32.0615 27.9391C32.0652 27.5691 32.2112 27.2147 32.4693 26.9496C32.7274 26.6844 33.0776 26.5288 33.4474 26.515ZM26.8078 24.0469H27.6094C28.2888 24.0483 28.9589 24.2045 29.5689 24.5037C30.1789 24.8029 30.7126 25.2371 31.1297 25.7735C30.6829 26.259 30.3968 26.8705 30.3102 27.5247C29.4492 27.3534 28.6578 26.9321 28.0349 26.3136C27.412 25.695 26.9852 24.9066 26.8078 24.0469ZM30.6343 29.424C30.8581 29.8603 31.1786 30.2398 31.5713 30.5335C31.1965 31.2615 30.6285 31.8723 29.9297 32.2991C29.2309 32.7258 28.4282 32.9521 27.6094 32.9531H26.8078C26.9963 32.0385 27.467 31.206 28.1535 30.5729C28.84 29.9398 29.7078 29.538 30.6347 29.424H30.6343ZM4.45312 51.6562H3.6116C3.8158 49.857 4.62215 48.1795 5.89975 46.8962C7.17734 45.6129 8.85118 44.7991 10.6495 44.5869C10.7793 45.5333 11.1061 46.4419 11.609 47.254C10.94 48.5778 9.91701 49.6901 8.65372 50.4673C7.39042 51.2444 5.93633 51.656 4.45312 51.6562ZM10.6495 42.6943C8.85118 42.4821 7.17734 41.6683 5.89975 40.385C4.62215 39.1017 3.8158 37.4243 3.6116 35.625H4.45312C5.93633 35.6252 7.39042 36.0368 8.65372 36.814C9.91701 37.5911 10.94 38.7035 11.609 40.0272C11.1061 40.8394 10.7793 41.748 10.6495 42.6943ZM41.829 50.9021C40.9484 51.1823 40.0077 51.4432 39.0012 51.6758C35.8291 52.245 32.6134 52.5365 29.3906 52.5469C24.4577 52.5469 19.5248 50.9963 14.7287 47.9379C14.0046 47.4786 13.4083 46.8439 12.9952 46.0926C12.582 45.3413 12.3654 44.4977 12.3654 43.6403C12.3654 42.7829 12.582 41.9393 12.9952 41.188C13.4083 40.4367 14.0046 39.8019 14.7287 39.3427C19.5248 36.285 24.4577 34.7344 29.3906 34.7344C32.6134 34.7455 35.8291 35.037 39.0014 35.6055C40.0078 35.8381 40.9485 36.099 41.8291 36.3791C41.4079 37.2928 40.0781 40.4325 40.0781 43.6406C40.0781 46.8488 41.4079 49.9886 41.829 50.9021ZM50.4527 46.4691C49.0014 47.6308 46.7485 49.089 43.5205 50.3134C43.309 49.8715 41.8594 46.7285 41.8594 43.6406C41.8594 40.5655 43.3084 37.4128 43.5206 36.9678C46.7486 38.1925 49.0015 39.6508 50.4527 40.8121C51.9457 42.0074 52.8315 43.0701 53.2528 43.6406C52.8308 44.2122 51.9457 45.2744 50.4527 46.4691Z" fill="#FFF599"/>
<path d="M48.0938 43.6406C48.5856 43.6406 48.9844 43.2419 48.9844 42.75C48.9844 42.2581 48.5856 41.8594 48.0938 41.8594C47.6019 41.8594 47.2031 42.2581 47.2031 42.75C47.2031 43.2419 47.6019 43.6406 48.0938 43.6406Z" fill="#FFF599"/>
<path d="M32.9279 39.6884C32.893 39.546 32.8236 39.4144 32.7257 39.3052C32.6278 39.1961 32.5045 39.1128 32.3666 39.0628L25.4963 36.5691C25.2861 36.4928 25.055 36.4983 24.8487 36.5846C24.6425 36.6708 24.4762 36.8315 24.383 37.0346C24.3329 37.1435 23.1562 39.7499 23.1562 43.6405C23.1562 47.5311 24.3325 50.1375 24.3826 50.2465C24.4759 50.4497 24.6422 50.6103 24.8484 50.6966C25.0547 50.7828 25.2858 50.7884 25.4959 50.7121L32.3663 48.2183C32.5041 48.1683 32.6275 48.0851 32.7254 47.9759C32.8233 47.8668 32.8928 47.7352 32.9276 47.5928C32.9625 47.4504 32.9616 47.3016 32.9252 47.1596C32.8887 47.0175 32.8177 46.8867 32.7186 46.7787C32.7093 46.7688 31.8081 45.7289 31.8081 43.6405C31.8081 41.5661 32.6876 40.5375 32.7186 40.5023C32.8177 40.3943 32.8887 40.2636 32.9252 40.1216C32.9618 39.9796 32.9627 39.8308 32.9279 39.6884ZM30.6809 46.8176C30.6966 46.8519 30.7124 46.8853 30.7282 46.9178L25.7185 48.7361C25.2851 47.373 25.0306 45.9594 24.9614 44.5308H25.8281C26.0643 44.5308 26.2909 44.437 26.4579 44.27C26.6249 44.1029 26.7187 43.8764 26.7187 43.6402C26.7187 43.404 26.6249 43.1774 26.4579 43.0104C26.2909 42.8434 26.0643 42.7496 25.8281 42.7496H24.9613C25.0305 41.3209 25.285 39.9073 25.7184 38.5441L30.7281 40.3626C30.7123 40.3954 30.6965 40.4288 30.6808 40.4628C30.2495 41.4664 30.0271 42.5474 30.0271 43.6399C30.0271 44.7323 30.2495 45.8133 30.6808 46.8169L30.6809 46.8176Z" fill="#FFF599"/>
<path d="M3.09425 26.1759C3.10539 26.1833 3.11652 26.1905 3.12765 26.1974L6.23437 28.1072V30.2812C6.23517 30.9896 6.51693 31.6688 7.01783 32.1697C7.51873 32.6706 8.19787 32.9523 8.90625 32.9531C9.45231 32.9531 9.92089 32.759 10.4171 32.5535C10.9999 32.3121 11.6025 32.0625 12.4687 32.0625C13.335 32.0625 13.9376 32.3121 14.5204 32.5535C15.0166 32.759 15.4857 32.9531 16.0312 32.9531C16.7396 32.9523 17.4188 32.6706 17.9197 32.1697C18.4206 31.6688 18.7023 30.9896 18.7031 30.2812V28.1072L21.8097 26.1974C21.8209 26.1905 21.832 26.1833 21.8431 26.1759C23.177 25.2715 23.5594 23.3191 22.6781 21.9127C20.8445 18.9852 16.9763 16.0312 12.4687 16.0312C7.96118 16.0312 4.09298 18.9852 2.25907 21.9127C1.37802 23.3191 1.76043 25.2715 3.09425 26.1759ZM16.9219 30.2812C16.9216 30.5174 16.8277 30.7438 16.6607 30.9107C16.4938 31.0777 16.2674 31.1716 16.0312 31.1719C15.8394 31.1719 15.5441 31.0494 15.2021 30.9078C14.5636 30.6434 13.6894 30.2812 12.4687 30.2812C11.2481 30.2812 10.3739 30.6434 9.73542 30.9078C9.39342 31.0494 9.09807 31.1719 8.90625 31.1719C8.67012 31.1716 8.44374 31.0777 8.27678 30.9107C8.10981 30.7438 8.01589 30.5174 8.01562 30.2812V28.5H9.79431H9.79754H9.80133H15.1362H15.14H15.1432H16.9219V30.2812ZM3.76857 22.8583C5.34186 20.3468 8.64229 17.8125 12.4687 17.8125C16.2952 17.8125 19.5956 20.3468 21.1689 22.8583C21.5392 23.4493 21.3898 24.318 20.8572 24.692L17.5607 26.7188H16.5817L17.7184 24.4452C17.8219 24.2342 17.8378 23.9909 17.7626 23.7682C17.6874 23.5455 17.5273 23.3616 17.3171 23.2565C17.1069 23.1514 16.8637 23.1336 16.6405 23.2071C16.4172 23.2805 16.2321 23.4392 16.1253 23.6485L14.5902 26.7188H13.3594V23.1562C13.3594 22.92 13.2655 22.6935 13.0985 22.5265C12.9315 22.3595 12.705 22.2656 12.4687 22.2656C12.2325 22.2656 12.006 22.3595 11.839 22.5265C11.672 22.6935 11.5781 22.92 11.5781 23.1562V26.7188H10.3473L8.81218 23.6485C8.76043 23.543 8.6883 23.4488 8.59994 23.3712C8.51159 23.2937 8.40877 23.2344 8.2974 23.1968C8.18604 23.1592 8.06833 23.1441 7.95106 23.1522C7.8338 23.1603 7.7193 23.1915 7.61417 23.2441C7.50904 23.2967 7.41536 23.3695 7.33852 23.4585C7.26169 23.5474 7.20322 23.6507 7.16649 23.7624C7.12976 23.874 7.1155 23.9918 7.12452 24.109C7.13355 24.2262 7.16568 24.3405 7.21907 24.4452L8.35584 26.7188H7.37682L4.08006 24.6926C3.54769 24.318 3.39829 23.4493 3.76857 22.8583Z" fill="#FFF599"/>
</svg>
