<svg width="45" height="46" viewBox="0 0 45 46" fill="#FFF599" xmlns="http://www.w3.org/2000/svg">
<path d="M22.5 0.250244C10.0937 0.250244 0 10.344 0 22.7502C0 35.1565 10.0937 45.2502 22.5 45.2502C34.9063 45.2502 45 35.1565 45 22.7502C45 10.344 34.9063 0.250244 22.5 0.250244ZM22.5 43.3753C11.1273 43.3753 1.87497 34.1229 1.87497 22.7502C1.87497 11.3775 11.1273 2.12521 22.5 2.12521C33.8727 2.12521 43.125 11.3775 43.125 22.7502C43.125 34.1229 33.8727 43.3753 22.5 43.3753Z" />
<path d="M34.5748 26.5398C34.0667 26.4181 33.565 26.7311 33.446 27.2347C32.2375 32.3222 27.7368 35.8755 22.4999 35.8755C17.2567 35.8755 12.7541 32.3168 11.5511 27.2228C11.4311 26.7174 10.923 26.4107 10.4232 26.5251C9.91871 26.6441 9.60652 27.1495 9.72553 27.653C11.1299 33.5985 16.3832 37.7503 22.4999 37.7503C28.6092 37.7503 33.8606 33.6048 35.2697 27.6686C35.3897 27.1642 35.0785 26.6588 34.5748 26.5398Z" />
<path d="M15 19.0002C16.0356 19.0002 16.875 18.1607 16.875 17.1252C16.875 16.0897 16.0356 15.2502 15 15.2502C13.9645 15.2502 13.1251 16.0897 13.1251 17.1252C13.1251 18.1607 13.9645 19.0002 15 19.0002Z" />
<path d="M30 19.0002C31.0355 19.0002 31.8749 18.1607 31.8749 17.1252C31.8749 16.0897 31.0355 15.2502 30 15.2502C28.9645 15.2502 28.125 16.0897 28.125 17.1252C28.125 18.1607 28.9645 19.0002 30 19.0002Z" />
</svg>
