<svg width="57" height="58" viewBox="0 0 57 58" fill="none" xmlns="http://www.w3.org/2000/svg">
<g clip-path="url(#clip0)">
<path d="M41.4771 41.5491L41.4524 41.5739C41.0175 42.0088 41.0175 42.7137 41.4524 43.1486C41.6698 43.3656 41.9546 43.4743 42.2395 43.4743C42.5243 43.4743 42.8092 43.3656 43.0266 43.1486L43.0601 43.1147C43.4924 42.6776 43.4884 41.9727 43.0514 41.5404C42.6143 41.1081 41.9094 41.1121 41.4771 41.5491Z" fill="#898989"/>
<path d="M54.5008 6.48227C54.2464 6.21395 53.8755 6.08957 53.5106 6.15002C53.1462 6.21047 52.8352 6.44791 52.6813 6.78364C51.9111 8.46095 50.3156 8.97758 47.7759 9.68121C45.6833 10.2609 43.3115 10.9176 41.5289 12.8071C39.281 15.1898 38.5009 17.6412 37.8742 19.6107C37.4933 20.8079 37.1641 21.8421 36.597 22.6588C36.0612 23.4298 35.3319 23.6833 33.9821 24.1004C32.3869 24.5931 30.417 25.2019 28.2317 27.2798C28.2308 27.278 28.23 27.2767 28.2291 27.275C28.1834 27.3206 28.1391 27.3663 28.0947 27.412C28.0486 27.4568 28.003 27.5011 27.9569 27.5472C27.9586 27.5477 27.9603 27.5485 27.9621 27.5494C25.9182 29.6985 25.0697 31.8594 24.3831 33.6094C23.8325 35.0127 23.3976 36.1212 22.5374 36.7188C21.7203 37.2858 20.6866 37.615 19.4894 37.996C17.5198 38.6226 15.0684 39.4028 12.6858 41.6507C10.7962 43.4332 10.1396 45.805 9.55988 47.8977C8.85625 50.4373 8.33961 52.0329 6.6623 52.8031C6.32657 52.957 6.08913 53.268 6.02868 53.6324C5.96824 53.9972 6.09261 54.3682 6.36093 54.6226C8.34092 56.4999 10.9789 57.1218 13.5516 57.1218C16.8897 57.1218 20.1165 56.0742 21.6468 55.3649C24.8462 53.8816 26.3387 52.4686 27.782 51.1023C28.6014 50.3269 29.375 49.5941 30.4813 48.8061C31.2219 48.2791 32.2465 48.0921 33.5433 47.8555C35.1119 47.5693 37.0636 47.2132 39.1914 46.0616C39.732 45.769 39.9333 45.0932 39.6407 44.5526C39.348 44.0116 38.6722 43.8111 38.1317 44.1034C36.3152 45.0866 34.6305 45.3941 33.1436 45.665C31.699 45.9286 30.3343 46.1777 29.1897 46.9927C27.9569 47.8707 27.0897 48.6918 26.2513 49.4854C24.8771 50.7861 23.5794 52.0146 20.7101 53.3449C18.7532 54.2525 12.8615 56.0468 9.0589 53.8711C10.5966 52.4934 11.1585 50.466 11.7051 48.4921C12.2318 46.5913 12.7762 44.6261 14.2139 43.2702C16.2274 41.3706 18.2287 40.7335 20.1643 40.1177C21.4759 39.7003 22.7149 39.3063 23.8073 38.5474C25.2237 37.5641 25.8221 36.0382 26.4557 34.423C27.1132 32.747 27.8573 30.8531 29.669 28.9867C31.5181 27.1924 33.1741 26.6805 34.6392 26.2278C36.073 25.7851 37.4272 25.3668 38.4256 23.9291C39.1841 22.8371 39.5785 21.5981 39.996 20.2861C40.6118 18.3505 41.2488 16.3492 43.1484 14.3357C44.5043 12.898 46.4695 12.3535 48.3699 11.8273C50.3443 11.2803 52.3717 10.7184 53.7494 9.18111C55.925 12.9837 54.1307 18.8749 53.2232 20.8319C51.8929 23.7012 50.6643 24.9988 49.3636 26.3731C48.5695 27.2115 47.7489 28.0786 46.8709 29.3115C46.0555 30.4561 45.8068 31.8207 45.5432 33.2658C45.2723 34.7488 44.9657 36.43 43.9877 38.2412C43.6959 38.7827 43.8977 39.458 44.4387 39.7498C44.607 39.8407 44.7879 39.8838 44.9666 39.8838C45.3623 39.8838 45.7459 39.672 45.9472 39.2993C47.0927 37.1767 47.448 35.2297 47.7337 33.6651C47.9703 32.3683 48.1568 31.3437 48.6844 30.6031C49.4723 29.4968 50.2047 28.7231 50.9805 27.9038C52.3469 26.4605 53.7598 24.9675 55.2431 21.7686C56.4995 19.0584 58.8144 11.0311 54.5008 6.48227Z" fill="#898989"/>
<path d="M31.5329 32.7815C31.098 32.3466 30.393 32.3466 29.9582 32.7815C27.7612 34.9789 27.7612 38.554 29.9582 40.7514C30.1756 40.9689 30.4605 41.0776 30.7453 41.0776C31.0301 41.0776 31.315 40.9689 31.5324 40.7514C31.9673 40.317 31.9673 39.6121 31.5324 39.1772C30.2034 37.8478 30.2034 35.6851 31.5324 34.3557C31.9673 33.9209 31.9673 33.2159 31.5329 32.7815Z" fill="#898989"/>
<path d="M16.4492 45.6926C16.0143 45.2577 15.3094 45.2577 14.8745 45.6926C14.056 46.5111 13.6055 47.5987 13.6055 48.7563C13.6055 49.9135 14.0565 51.0016 14.8745 51.82C15.0919 52.037 15.3768 52.1457 15.6616 52.1457C15.9464 52.1457 16.2313 52.037 16.4487 51.82C16.8836 51.3851 16.8836 50.6802 16.4487 50.2453C15.6277 49.4243 15.6277 48.0883 16.4487 47.2669C16.8836 46.832 16.8836 46.1271 16.4492 45.6926Z" fill="#898989"/>
<path d="M45.5159 17.5603C45.081 17.1254 44.3765 17.1254 43.9416 17.5603C43.2028 18.2987 42.7961 19.2807 42.7961 20.3252C42.7961 21.3698 43.2028 22.3518 43.9416 23.0906C44.1591 23.308 44.4439 23.4163 44.7287 23.4163C45.0136 23.4163 45.2984 23.308 45.5159 23.0906C45.9503 22.6557 45.9503 21.9508 45.5159 21.5159C45.1975 21.198 45.0227 20.7753 45.0227 20.3252C45.0227 19.8756 45.1975 19.4529 45.5159 19.1345C45.9508 18.6997 45.9508 17.9952 45.5159 17.5603Z" fill="#898989"/>
<path d="M13.1672 28.499C13.1672 25.09 10.2139 22.3164 6.58359 22.3164C2.95324 22.3164 0 25.09 0 28.499C0 31.908 2.95324 34.6817 6.58359 34.6817C10.2139 34.6817 13.1672 31.908 13.1672 28.499ZM2.22656 28.499C2.22656 26.6669 3.60556 25.1222 5.4703 24.6743V24.9705C5.4703 25.5854 5.96911 26.0837 6.58359 26.0837C7.1985 26.0837 7.69687 25.5854 7.69687 24.9705V24.6743C9.56205 25.1222 10.941 26.6669 10.941 28.499C10.941 30.6804 8.98627 32.4551 6.58359 32.4551C4.18133 32.4551 2.22656 30.6804 2.22656 28.499Z" fill="#898989"/>
<path d="M22.8227 19.4566C24.5226 19.4566 26.2608 18.7813 27.5972 17.4453C30.1643 14.8783 30.2913 10.8287 27.8808 8.41818C25.4702 6.00767 21.4207 6.13465 18.8536 8.70172C16.2865 11.2688 16.1596 15.3184 18.5701 17.7289C19.726 18.8848 21.2576 19.4566 22.8227 19.4566ZM26.3065 9.99244C27.849 11.5349 27.7216 14.172 26.023 15.8711C24.3239 17.5697 21.6868 17.6971 20.1443 16.1546C18.8488 14.8591 18.7318 12.7917 19.7338 11.1562L19.9434 11.3658C20.1604 11.5832 20.4457 11.6915 20.7305 11.6915C21.0154 11.6915 21.3002 11.5828 21.5177 11.3658C21.9521 10.9309 21.9521 10.226 21.5177 9.79109L21.3085 9.58191C22.0317 9.13877 22.8392 8.91394 23.6277 8.91394C24.6214 8.91394 25.5842 9.27011 26.3065 9.99244Z" fill="#898989"/>
<path d="M5.98431 12.8936C7.68381 12.8936 9.42244 12.2183 10.7588 10.8819C13.3259 8.31526 13.4529 4.2657 11.0424 1.85475C8.63184 -0.555768 4.58227 -0.428349 2.0152 2.13872C-0.551871 4.70536 -0.678855 8.75492 1.73166 11.1659C2.88756 12.3213 4.41919 12.8936 5.98431 12.8936ZM3.58945 3.71297C4.42354 2.87845 5.50334 2.39573 6.62967 2.35268C6.68403 2.35094 6.73752 2.34964 6.79101 2.34964C7.82297 2.34964 8.76839 2.72972 9.4681 3.42943C10.7636 4.72493 10.8806 6.79233 9.87863 8.42746L9.66902 8.21829C9.23458 7.78341 8.52964 7.78341 8.09477 8.21829C7.66032 8.65316 7.66032 9.35766 8.09477 9.79254L8.30525 10.0026C7.64728 10.4075 6.90668 10.6388 6.14435 10.6675C5.04803 10.7097 4.04172 10.327 3.30591 9.59119C1.76341 8.04869 1.89083 5.41203 3.58945 3.71297Z" fill="#898989"/>
</g>
<defs>
<clipPath id="clip0">
<rect width="57" height="57" fill="white" transform="translate(0 0.015625)"/>
</clipPath>
</defs>
</svg>
