<svg width="22" height="20" viewBox="0 0 22 20" fill="none" xmlns="http://www.w3.org/2000/svg">
<path d="M1.32663 9.11612C0.838471 9.60427 0.838471 10.3957 1.32663 10.8839L9.28158 18.8388C9.76973 19.327 10.5612 19.327 11.0493 18.8388C11.5375 18.3507 11.5375 17.5592 11.0493 17.0711L3.97828 10L11.0493 2.92893C11.5375 2.44078 11.5375 1.64932 11.0493 1.16117C10.5612 0.67301 9.76973 0.67301 9.28158 1.16117L1.32663 9.11612ZM2.28949 8.75H2.21051V11.25H2.28949V8.75Z" fill="#FFF599"/>
<path d="M11.8266 9.11612C11.3385 9.60427 11.3385 10.3957 11.8266 10.8839L19.7816 18.8388C20.2697 19.327 21.0612 19.327 21.5493 18.8388C22.0375 18.3507 22.0375 17.5592 21.5493 17.0711L14.4783 10L21.5493 2.92893C22.0375 2.44078 22.0375 1.64932 21.5493 1.16117C21.0612 0.67301 20.2697 0.67301 19.7816 1.16117L11.8266 9.11612ZM12.7895 8.75H12.7105V11.25H12.7895V8.75Z" fill="#FFF599"/>
</svg>
