<svg width="27" height="27" viewBox="0 0 27 27" fill="none" xmlns="http://www.w3.org/2000/svg">
<g clip-path="url(#clip0)">
<path d="M13.6311 26.9999C20.8798 26.9999 26.756 21.1237 26.756 13.8749C26.756 6.62624 20.8798 0.75 13.6311 0.75C6.38237 0.75 0.506134 6.62624 0.506134 13.8749C0.506134 21.1237 6.38237 26.9999 13.6311 26.9999Z" fill="#4E598F"/>
<path d="M26.7343 13.1418L20.5524 6.95799C20.45 6.989 20.1944 6.87011 20.0821 6.89267C17.4306 7.33461 14.8675 6.89267 12.3044 7.59972C11.067 7.95328 10.9786 9.45578 10.5367 10.428C9.91803 12.1957 10.0064 14.1401 9.21092 15.8194C8.68064 16.9684 7.44326 17.6754 7.00131 19.0012C6.85391 19.5541 6.86263 20.2511 6.69595 20.7797L12.8985 26.9793C13.1408 26.9927 13.3845 27 13.6301 27C20.8787 27 26.755 21.1237 26.755 13.875C26.7551 13.6289 26.7477 13.3845 26.7343 13.1418Z" fill="#364270"/>
<path d="M19.1181 6.36221H8.14212C7.02398 6.36221 6.11749 7.26865 6.11749 8.38684V19.3628C6.11749 20.4811 7.02393 21.3875 8.14212 21.3875H13.5553L13.5647 16.0184H12.1697C11.9884 16.0184 11.8412 15.8718 11.8406 15.6905L11.8338 13.9597C11.8331 13.7776 11.9808 13.6293 12.163 13.6293H13.5555V11.957C13.5555 10.0164 14.7408 8.95967 16.4719 8.95967H17.8926C18.0743 8.95967 18.2218 9.10702 18.2218 9.28882V10.7481C18.2218 10.9299 18.0744 11.0772 17.8928 11.0772L17.0209 11.0778C16.0795 11.0778 15.8971 11.5251 15.8971 12.1817V13.6295H17.9658C18.1631 13.6295 18.316 13.8017 18.2927 13.9973L18.0875 15.7281C18.068 15.8938 17.9275 16.0185 17.7607 16.0185H15.9064L15.897 21.3878H19.118C20.2362 21.3878 21.1427 20.4812 21.1427 19.3631V8.38684C21.1427 7.26871 20.2362 6.36221 19.1181 6.36221Z" fill="white"/>
<path d="M13.5553 21.3874L13.5647 16.0184H13.5417V21.3874H13.5553Z" fill="white"/>
<path d="M19.1181 6.36221H13.5417V13.6292H13.5555V11.9569C13.5555 10.0163 14.7408 8.95957 16.4719 8.95957H17.8926C18.0743 8.95957 18.2218 9.10692 18.2218 9.28872V10.748C18.2218 10.9298 18.0744 11.0771 17.8928 11.0771L17.0209 11.0777C16.0795 11.0777 15.8971 11.525 15.8971 12.1816V13.6294H17.9658C18.1631 13.6294 18.316 13.8015 18.2927 13.9971L18.0875 15.7279C18.068 15.8936 17.9275 16.0184 17.7607 16.0184H15.9064L15.897 21.3876H19.1181C20.2362 21.3876 21.1427 20.4811 21.1427 19.3629V8.38684C21.1427 7.26871 20.2362 6.36221 19.1181 6.36221Z" fill="#D1D1D1"/>
</g>
<defs>
<clipPath>
<rect width="26.25" height="26.25" fill="white" transform="translate(0.505127 0.75)"/>
</clipPath>
</defs>
</svg>
