<svg width="27" height="27" viewBox="0 0 27 27" fill="none" xmlns="http://www.w3.org/2000/svg">
<g clip-path="url(#clip0)">
<path d="M27 14C27 16.4165 26.3404 18.6794 25.1917 20.6184C24.4764 21.8249 23.5713 22.9064 22.5174 23.821C20.3356 25.7148 17.5168 26.8939 14.4251 26.9931C14.2839 26.9978 14.1422 27 14 27C13.8578 27 13.7161 26.9978 13.5749 26.9931C10.4985 26.8945 7.69321 25.7271 5.51596 23.8504C4.42079 22.9064 3.48491 21.7824 2.75414 20.5254C1.63893 18.6078 1 16.3782 1 14C1 11.7014 1.59648 9.54176 2.64325 7.66821C4.27499 4.74829 7.00012 2.52225 10.2644 1.54491C11.4473 1.19043 12.7015 1 14 1C15.2985 1 16.5527 1.19043 17.7356 1.54491C20.9781 2.5159 23.6889 4.71913 25.3238 7.61029C26.3908 9.49713 27 11.6776 27 14V14Z" fill="url(#paint0_linear)"/>
<path d="M23.2371 9.32418C23.1187 6.5678 20.8392 4.36194 18.0547 4.36194H9.88527C7.09982 4.36194 4.82032 6.56827 4.70244 9.32497C4.69897 9.39987 4.69739 9.47461 4.69739 9.54982V17.7189C4.69739 18.0819 4.73499 18.4366 4.80642 18.7786C5.65084 20.3788 6.90277 21.7309 8.42365 22.6971C8.88726 22.8337 9.37805 22.9068 9.88527 22.9068H18.0547C18.5619 22.9068 19.0526 22.8337 19.5163 22.6971C21.0367 21.7309 22.2882 20.3792 23.1331 18.7798C23.2045 18.4374 23.2421 18.0824 23.2421 17.7189V9.54982C23.2421 9.47413 23.2405 9.39892 23.2371 9.32418V9.32418ZM21.549 17.7189C21.549 19.6459 19.9812 21.2135 18.0547 21.2135H9.88527C7.9583 21.2135 6.3905 19.6459 6.3905 17.7189V9.54982C6.3905 7.62285 7.9583 6.05521 9.88527 6.05521H18.0547C19.9812 6.05521 21.549 7.62285 21.549 9.54982V17.7189Z" fill="#F1F1F1"/>
<path d="M13.9699 8.76752C11.2864 8.76752 9.10278 10.9511 9.10278 13.6346C9.10278 16.3182 11.2864 18.5013 13.9699 18.5013C16.6536 18.5013 18.8367 16.3182 18.8367 13.6346C18.8367 10.9511 16.6536 8.76752 13.9699 8.76752ZM13.9699 16.808C12.2196 16.808 10.7961 15.3845 10.7961 13.6346C10.7961 11.8843 12.2196 10.4608 13.9699 10.4608C15.7199 10.4608 17.1434 11.8843 17.1434 13.6346C17.1434 15.3845 15.7199 16.808 13.9699 16.808Z" fill="#F1F1F1"/>
<path d="M20.0521 8.64079C20.0521 9.25893 19.5509 9.76015 18.9328 9.76015C18.3144 9.76015 17.8132 9.25893 17.8132 8.64079C17.8132 8.02248 18.3144 7.52142 18.9328 7.52142C19.5509 7.52142 20.0521 8.02248 20.0521 8.64079V8.64079Z" fill="#F1F1F1"/>
</g>
<defs>
<linearGradient id="paint0_linear" x1="14" y1="27" x2="14" y2="1" gradientUnits="userSpaceOnUse">
<stop stop-color="#FFD600"/>
<stop offset="0.5271" stop-color="#FF0095"/>
<stop offset="0.5802" stop-color="#F2069C"/>
<stop offset="0.6791" stop-color="#CF14B0"/>
<stop offset="0.813" stop-color="#962CCF"/>
<stop offset="0.9753" stop-color="#494DFA"/>
<stop offset="0.9951" stop-color="#3F51FF"/>
</linearGradient>
<clipPath id="clip0">
<rect width="26.25" height="26.25" fill="white" transform="translate(0.689453 0.75)"/>
</clipPath>
</defs>
</svg>
