<svg width="27" height="27" viewBox="0 0 27 27" fill="none" xmlns="http://www.w3.org/2000/svg">
<g clip-path="url(#clip0)">
<path d="M26.9395 13.875C26.9395 16.3147 26.2736 18.5994 25.1138 20.5571C24.3916 21.7751 23.4778 22.867 22.4137 23.7904C20.2109 25.7024 17.3651 26.8929 14.2436 26.993C14.101 26.9978 13.958 27 13.8145 27C13.6709 27 13.5279 26.9978 13.3853 26.993C10.2793 26.8935 7.44702 25.7149 5.24884 23.8201C4.14314 22.867 3.19826 21.7323 2.46045 20.4631C1.33453 18.5271 0.689453 16.2761 0.689453 13.875C0.689453 11.5543 1.29167 9.3739 2.3485 7.48233C3.99594 4.53433 6.74727 2.28688 10.0429 1.30015C11.2372 0.942261 12.5035 0.75 13.8145 0.75C15.1254 0.75 16.3917 0.942261 17.586 1.30015C20.8596 2.28048 23.5965 4.50489 25.2472 7.42385C26.3244 9.32883 26.9395 11.5302 26.9395 13.875Z" fill="url(#paint0_linear)"/>
<path d="M23.1927 9.11256C23.0729 6.32318 20.7662 4.09091 17.9483 4.09091H9.68108C6.86228 4.09091 4.5555 6.32366 4.43621 9.11336C4.43269 9.18915 4.43109 9.26479 4.43109 9.3409V17.6078C4.43109 17.9751 4.46915 18.3341 4.54143 18.6801C5.39596 20.2995 6.66288 21.6678 8.20196 22.6456C8.67112 22.7838 9.16779 22.8578 9.68108 22.8578H17.9483C18.4616 22.8578 18.9581 22.7838 19.4274 22.6456C20.966 21.6678 22.2325 20.3 23.0875 18.6814C23.1598 18.3349 23.1978 17.9756 23.1978 17.6078V9.3409C23.1978 9.26431 23.1962 9.18819 23.1927 9.11256ZM21.4844 17.6078C21.4844 19.5579 19.8979 21.1443 17.9483 21.1443H9.68108C7.73104 21.1443 6.14447 19.5579 6.14447 17.6078V9.3409C6.14447 7.39087 7.73104 5.80445 9.68108 5.80445H17.9483C19.8979 5.80445 21.4844 7.39087 21.4844 9.3409V17.6078Z" fill="#F1F1F1"/>
<path d="M13.8146 8.54922C11.0989 8.54922 8.88922 10.7589 8.88922 13.4746C8.88922 16.1903 11.0989 18.3995 13.8146 18.3995C16.5304 18.3995 18.7397 16.1903 18.7397 13.4746C18.7397 10.7589 16.5304 8.54922 13.8146 8.54922ZM13.8146 16.686C12.0433 16.686 10.6028 15.2454 10.6028 13.4746C10.6028 11.7033 12.0433 10.2628 13.8146 10.2628C15.5856 10.2628 17.0261 11.7033 17.0261 13.4746C17.0261 15.2454 15.5856 16.686 13.8146 16.686Z" fill="#F1F1F1"/>
<path d="M19.9696 8.42097C19.9696 9.04652 19.4624 9.55374 18.8369 9.55374C18.2112 9.55374 17.7039 9.04652 17.7039 8.42097C17.7039 7.79527 18.2112 7.28821 18.8369 7.28821C19.4624 7.28821 19.9696 7.79527 19.9696 8.42097Z" fill="#F1F1F1"/>
</g>
<defs>
<linearGradient id="paint0_linear" x1="13.8145" y1="27" x2="13.8145" y2="0.75" gradientUnits="userSpaceOnUse">
<stop stop-color="#FFD600"/>
<stop offset="0.5271" stop-color="#FF0095"/>
<stop offset="0.5802" stop-color="#F2069C"/>
<stop offset="0.6791" stop-color="#CF14B0"/>
<stop offset="0.813" stop-color="#962CCF"/>
<stop offset="0.9753" stop-color="#494DFA"/>
<stop offset="0.9951" stop-color="#3F51FF"/>
</linearGradient>
<clipPath id="clip0">
<rect width="26.25" height="26.25" fill="white" transform="translate(0.689453 0.75)"/>
</clipPath>
</defs>
</svg>
