<svg width="36" height="36" viewBox="0 0 36 36" fill="none" xmlns="http://www.w3.org/2000/svg">
<g clip-path="url(#clip0)">
<path d="M15.5577 5.7533C12.6371 6.89255 10.7202 9.70048 10.7191 12.7771C10.7191 13.894 11.6358 14.8052 12.7781 14.8052C13.9186 14.8052 14.8371 13.8957 14.8371 12.7771C14.8399 10.8529 16.4111 9.28624 18.3785 9.28482C20.3093 9.28482 21.9248 10.8892 21.9248 12.7737C21.9241 14.2338 21.0311 15.5147 19.6517 16.038C18.662 16.412 17.8247 17.0565 17.2303 17.9032C16.1432 19.4501 16.3223 20.7552 16.3223 22.7825C16.3223 22.9435 16.3415 23.1038 16.3792 23.26C16.4355 23.4885 16.6414 23.6482 16.8796 23.6482C17.2154 23.6482 17.4581 23.3384 17.3806 23.0219C17.3403 22.8576 17.3511 22.9736 17.3511 20.7815C17.3538 19.0908 18.4011 17.6009 20.0209 16.9848C23.0781 15.8305 23.9777 11.9373 21.6056 9.59996C18.7167 6.75557 13.8032 8.78236 13.8077 12.777C13.8063 13.335 13.3451 13.7901 12.7782 13.7914C12.2113 13.7901 11.7494 13.335 11.7487 12.777C11.7473 9.12024 14.8655 6.00622 18.802 6.25433C22.2173 6.46369 25.0132 9.2886 25.0132 12.7776C25.0126 15.5044 23.3427 17.8997 20.7601 18.879C20.362 19.0284 20.0237 19.2867 19.7814 19.6256C19.3147 20.2815 19.4107 20.6623 19.4107 22.7824C19.4094 23.3403 18.9475 23.7954 18.3812 23.7962C18.0971 23.7962 17.8665 24.024 17.8665 24.3034C17.8665 25.3685 20.4378 24.7196 20.4402 22.7824V20.7813C20.4415 20.3554 20.7058 19.9889 21.1293 19.8259C24.1219 18.6928 26.0454 15.8882 26.0427 12.7778C26.0427 7.47942 20.5804 3.7882 15.5577 5.7533Z" fill="#FFF599"/>
<path d="M20.1373 27.846C19.335 26.536 17.4842 26.5632 16.6674 27.7748C15.7705 29.1057 16.7113 30.9247 18.3977 30.9247C19.9516 30.9247 20.9869 29.2332 20.1373 27.846ZM18.1353 29.8784C17.7362 29.7814 17.4509 29.4889 17.3722 29.096C17.1614 27.9744 18.6652 27.4055 19.2559 28.3701C19.7348 29.1521 19.0346 30.0971 18.1353 29.8784Z" fill="#FFF599"/>
<path d="M27.0766 3.0932C17.9343 -2.13549 6.18749 1.75988 2.08024 11.3376C0.408842 15.2287 0.269605 19.5866 1.57922 23.4991C2.49019 26.2203 3.98701 28.2003 4.10758 28.3054L4.10964 28.3027L4.10827 28.3061C4.10964 28.3074 4.11101 28.3081 4.11307 28.3101C4.11376 28.3101 4.11376 28.3109 4.11444 28.3115C4.11513 28.3115 4.11513 28.3122 4.11582 28.3129C4.30933 28.473 4.47341 28.4272 4.54204 28.4272L4.54341 28.4265C4.54993 28.4265 4.59673 28.4162 4.64085 28.3988C4.64154 28.3988 4.64223 28.3988 4.64223 28.3988C4.64223 28.3988 4.65376 28.3935 4.65389 28.3934H4.65527C4.98802 28.2526 5.04683 27.8363 4.86663 27.6285C-3.07641 16.8235 4.86299 1.77855 18.2691 1.77855C27.5214 1.77855 34.8094 9.21612 34.8094 18.0767C34.8094 27.0831 27.4112 34.3749 18.2691 34.3749C14.7607 34.3749 11.408 33.305 8.57422 31.2816C8.41638 31.1686 8.19885 31.1545 8.02722 31.2464L2.24974 34.3289C1.97504 34.4737 1.7271 34.2373 1.72882 34.0293C1.73026 33.9078 1.60399 34.1738 3.92298 29.9527C4.10943 29.6142 3.85752 29.2041 3.47137 29.2041C3.28197 29.2041 3.10829 29.3062 3.01846 29.4699C0.684022 33.7175 0.697953 33.5751 0.699394 34.0293C0.701247 35.0236 1.79401 35.7265 2.73985 35.2216L8.23522 32.2885C14.1761 36.3716 22.0878 36.4291 28.0925 32.4326C38.8428 25.2775 38.2975 9.50909 27.0766 3.0932Z" fill="#FFF599"/>
</g>
<defs>
<clipPath id="clip0">
<rect width="35.1353" height="34.6333" fill="white" transform="translate(0.698486 0.757202)"/>
</clipPath>
</defs>
</svg>
