<svg id="Capa_1" height="512" viewBox="0 0 512 512" width="512" xmlns="http://www.w3.org/2000/svg">
<g>
<path d="m393.3 0h-274.6c-59.824 0-106.498 51.723-100.315 111.167l32.297 310.494c5.341 51.336 48.651 90.339 100.316 90.339h90.002v-120.523c0-8.276 6.716-14.985 15-14.985s15 6.709 15 14.985v120.523h90.002c51.665 0 94.975-39.003 100.315-90.339l32.297-310.494c6.184-59.444-40.49-111.167-100.314-111.167zm32.86 164.184-81.733 93.855c-2.85 3.271-6.977 5.15-11.317 5.15h-154.22c-4.341 0-8.468-1.878-11.317-5.15l-81.733-93.855c-4.911-5.639-4.911-14.031 0-19.671 45.32-52.042 105.751-80.702 170.16-80.702s124.84 28.661 170.16 80.703c4.911 5.639 4.911 14.031 0 19.67z"/>
<path d="m367.69 131.09-13.014 15.404c-2.967 3.555-7.233 5.39-11.529 5.39-3.387 0-6.792-1.139-9.598-3.475-6.362-5.299-7.221-14.748-1.916-21.105l10.115-12.357c-22.174-11.539-46.047-18.533-70.748-20.55v18.455c0 8.276-6.716 14.985-15 14.985s-15-6.709-15-14.985v-18.455c-24.701 2.017-48.574 9.011-70.749 20.549l10.115 12.357c5.305 6.357 4.446 15.806-1.916 21.105-2.805 2.335-6.211 3.475-9.598 3.475-4.297 0-8.562-1.835-11.529-5.39l-13.063-15.368c-9.451 6.931-18.474 14.774-26.981 23.499l68.442 78.594h39.945l23.557-50.974c2.668-5.774 10.883-5.774 13.551 0l23.557 50.974h39.945l68.442-78.594c-8.518-8.739-17.558-16.594-27.028-23.534z"/>
</g>
</svg>