<svg width="28" height="27" viewBox="0 0 28 27" fill="none" xmlns="http://www.w3.org/2000/svg">
<g clip-path="url(#clip0)">
<path d="M13.9988 27.0001C21.2476 27.0001 27.1238 21.1238 27.1238 13.875C27.1238 6.62628 21.2476 0.75 13.9988 0.75C6.75005 0.75 0.873779 6.62628 0.873779 13.875C0.873779 21.1238 6.75005 27.0001 13.9988 27.0001Z" fill="#D42428"/>
<path d="M23.2791 4.5928C28.4048 9.71889 28.4052 18.0295 23.2791 23.1556C18.1535 28.2812 9.84246 28.2815 4.71637 23.1556L23.2791 4.5928Z" fill="#CC202D"/>
<path d="M26.86 16.5037L20.364 10.008L12.7026 10.8803L8.06836 18.0548L16.7278 26.714C21.819 25.637 25.8217 21.6097 26.86 16.5037Z" fill="#BA202E"/>
<path d="M20.8671 11.3423C20.8671 10.242 19.9758 9.35019 18.8761 9.35019H9.53486C8.43541 9.35019 7.54422 10.2422 7.54422 11.3423V16.6841C7.54422 17.7844 8.43558 18.6762 9.53486 18.6762H18.876C19.9758 18.6762 20.867 17.7841 20.867 16.6841V11.3423H20.8671ZM12.873 16.2667V11.2494L16.6778 13.7582L12.873 16.2667Z" fill="white"/>
</g>
<defs>
<clipPath id="clip0">
<rect width="26.25" height="26.25" fill="white" transform="translate(0.873779 0.75)"/>
</clipPath>
</defs>
</svg>
